<svg width="213" height="213" fill="none" xmlns="http://www.w3.org/2000/svg"><path d="M186.729 71.291h-38.05v86.316h38.05V71.291z" stroke="#263238" stroke-width=".75" stroke-linecap="round" stroke-linejoin="round"/><path d="M183.388 74.63h-31.37v79.637h31.37V74.631zm-27.804 35.163l-.856 1.487m9.862-17.079l-8.018 13.888m15.375-26.634l-6.075 10.523m7.361-12.746l-.647 1.116m-14.45 67.295l-.729 1.261m2.416-4.183l-.771 1.342m11.059-19.162l-8.635 14.961m16.281-28.205l-6.761 11.715m8.436-14.612l-.669 1.159m-11.059 26.195l-6.228 10.79m14.194-24.589l-7.059 12.227m8.716-15.094l-.835 1.444m-21.764-1.929l-.946 1.64m9.223-15.975l-7.519 13.023m17.849-30.915l-9.444 16.354m15.651-27.106l-5.479 9.49M64.322 71.291h-38.05v86.316h38.05V71.291z" stroke="#263238" stroke-width=".75" stroke-linecap="round" stroke-linejoin="round"/><path d="M60.982 74.63h-31.37v79.637h31.37V74.631zm-27.804 35.163l-.857 1.487m9.857-17.079l-8.017 13.888M49.54 81.455l-6.075 10.523m7.357-12.746l-.643 1.116m-14.451 67.295L35 148.904m2.415-4.183l-.775 1.342m11.063-19.162l-8.64 14.961m16.287-28.205l-6.764 11.715m8.438-14.612l-.673 1.159m-11.055 26.195l-6.233 10.79m14.2-24.589l-7.059 12.227m8.712-15.094l-.831 1.444m-21.765-1.929l-.95 1.64m9.223-15.975l-7.519 13.023m17.851-30.915l-9.44 16.354M57.13 77.984l-5.478 9.49" stroke="#263238" stroke-width=".75" stroke-linecap="round" stroke-linejoin="round"/><path d="M12.567 193.587h187.866" stroke="#263238" stroke-linecap="round" stroke-linejoin="round"/><path d="M77.826 159.839h-3.259v11.081h3.26v-11.081z" fill="#fff"/><path opacity=".2" d="M77.826 159.839h-3.259v11.081h3.26v-11.081z" fill="#000"/><path d="M81.089 161.058H77.83v9.862h3.259v-9.862zm4.069 0h-2.3v9.862h2.3v-9.862z" fill="#fff"/><path opacity=".9" d="M85.158 161.058h-2.3v9.862h2.3v-9.862z" fill="#fff"/><path d="M82.86 160.018h-2.087v10.906h2.088v-10.906z" fill="#fff"/><path opacity=".1" d="M82.86 160.018h-2.087v10.906h2.088v-10.906z" fill="#000"/><path d="M88.421 159.839h-3.259v11.081h3.259v-11.081z" fill="#fff"/><path d="M91.679 161.058h-3.26v9.862h3.26v-9.862z" fill="#fff"/><path opacity=".2" d="M91.679 161.058h-3.26v9.862h3.26v-9.862z" fill="#263238"/><path d="M95.753 161.058h-2.3v9.862h2.3v-9.862z" fill="#fff"/><path opacity=".8" d="M95.753 161.058h-2.3v9.862h2.3v-9.862z" fill="#fff"/><path d="M93.452 160.018h-2.088v10.906h2.088v-10.906z" fill="#fff"/><path opacity=".1" d="M93.452 160.018h-2.088v10.906h2.088v-10.906z" fill="#000"/><path d="M111.301 170.924h3.259v-11.08h-3.259v11.08z" fill="#fff"/><path opacity=".2" d="M111.301 170.924h3.259v-11.08h-3.259v11.08z" fill="#000"/><path d="M108.038 170.924h3.259v-9.862h-3.259v9.862zm-4.069 0h2.301v-9.862h-2.301v9.862z" fill="#fff"/><path opacity=".9" d="M103.969 170.924h2.301v-9.862h-2.301v9.862z" fill="#fff"/><path d="M106.265 170.92h2.088v-10.906h-2.088v10.906z" fill="#fff"/><path opacity=".1" d="M106.265 170.92h2.088v-10.906h-2.088v10.906z" fill="#000"/><path d="M100.706 170.924h3.259v-11.08h-3.259v11.08zm-3.259 0h3.259v-9.862h-3.259v9.862z" fill="#fff"/><path opacity=".2" d="M97.447 170.924h3.259v-9.862h-3.259v9.862z" fill="#263238"/><path d="M95.675 170.92h2.088v-10.906h-2.088v10.906z" fill="#fff"/><path opacity=".1" d="M95.675 170.92h2.088v-10.906h-2.088v10.906z" fill="#000"/><path d="M130.088 170.924h3.259v-11.08h-3.259v11.08z" fill="#fff"/><path opacity=".2" d="M130.088 170.924h3.259v-11.08h-3.259v11.08z" fill="#000"/><path d="M126.825 170.924h3.259v-9.862h-3.259v9.862zm-4.069 0h2.301v-9.862h-2.301v9.862z" fill="#fff"/><path opacity=".9" d="M122.756 170.924h2.301v-9.862h-2.301v9.862z" fill="#fff"/><path d="M125.052 170.92h2.088v-10.906h-2.088v10.906z" fill="#fff"/><path opacity=".1" d="M125.052 170.92h2.088v-10.906h-2.088v10.906z" fill="#000"/><path d="M119.493 170.924h3.259v-11.08h-3.259v11.08zm15.975-.392l2.14-.573-2.88-10.748-2.141.574 2.881 10.747zm-19.234.392h3.259v-9.862h-3.259v9.862z" fill="#fff"/><path opacity=".2" d="M116.234 170.924h3.259v-9.862h-3.259v9.862z" fill="#263238"/><path d="M114.462 170.92h2.088v-10.906h-2.088v10.906z" fill="#fff"/><path opacity=".1" d="M114.462 170.92h2.088v-10.906h-2.088v10.906z" fill="#000"/><path d="M136.559 185.317l2.189-.587-2.868-10.702-2.189.586 2.868 10.703z" fill="#fff"/><path opacity=".2" d="M136.559 185.317l2.189-.587-2.868-10.702-2.189.586 2.868 10.703z" fill="#000"/><path d="M130.935 185.208h3.259v-9.862h-3.259v9.862zm-4.077 0h2.3v-9.862h-2.3v9.862z" fill="#fff"/><path opacity=".9" d="M126.858 185.208h2.3v-9.862h-2.3v9.862z" fill="#fff"/><path d="M129.159 185.212h2.087v-10.906h-2.087v10.906z" fill="#fff"/><path opacity=".1" d="M129.159 185.212h2.087v-10.906h-2.087v10.906z" fill="#000"/><path d="M123.603 185.212h3.259v-11.08h-3.259v11.08zm-3.262-.004h3.259v-9.862h-3.259v9.862z" fill="#fff"/><path opacity=".2" d="M120.341 185.208h3.259v-9.862h-3.259v9.862z" fill="#263238"/><path d="M116.272 185.208h2.3v-9.862h-2.3v9.862z" fill="#fff"/><path opacity=".8" d="M116.272 185.208h2.3v-9.862h-2.3v9.862z" fill="#fff"/><path d="M118.568 185.212h2.087v-10.906h-2.087v10.906z" fill="#fff"/><path opacity=".1" d="M118.568 185.212h2.087v-10.906h-2.087v10.906z" fill="#000"/><path d="M100.724 174.132h-3.26v11.08h3.26v-11.08z" fill="#fff"/><path opacity=".2" d="M100.724 174.132h-3.26v11.08h3.26v-11.08z" fill="#000"/><path d="M103.983 175.35h-3.259v9.862h3.259v-9.862zm4.072 0h-2.3v9.862h2.3v-9.862z" fill="#fff"/><path opacity=".9" d="M108.055 175.35h-2.3v9.862h2.3v-9.862z" fill="#fff"/><path d="M105.754 174.306h-2.087v10.906h2.087v-10.906z" fill="#fff"/><path opacity=".1" d="M105.754 174.306h-2.087v10.906h2.087v-10.906z" fill="#000"/><path d="M111.314 174.132h-3.259v11.08h3.259v-11.08z" fill="#fff"/><path d="M114.572 175.35h-3.259v9.862h3.259v-9.862z" fill="#fff"/><path opacity=".2" d="M114.572 175.35h-3.259v9.862h3.259v-9.862z" fill="#263238"/><path d="M116.344 174.306h-2.087v10.906h2.087v-10.906z" fill="#fff"/><path opacity=".1" d="M116.344 174.306h-2.087v10.906h2.087v-10.906z" fill="#000"/><path d="M81.937 174.132h-3.26v11.08h3.26v-11.08z" fill="#fff"/><path opacity=".2" d="M81.937 174.132h-3.26v11.08h3.26v-11.08z" fill="#000"/><path d="M85.195 175.35h-3.258v9.862h3.258v-9.862zm4.073 0h-2.3v9.862h2.3v-9.862z" fill="#fff"/><path opacity=".9" d="M89.268 175.35h-2.3v9.862h2.3v-9.862z" fill="#fff"/><path d="M86.968 174.306h-2.087v10.906h2.087v-10.906z" fill="#fff"/><path opacity=".1" d="M86.968 174.306h-2.087v10.906h2.087v-10.906z" fill="#000"/><path d="M92.527 174.132H89.27v11.08h3.258v-11.08zm-13.856.473l-2.131-.571-2.868 10.703 2.132.571 2.867-10.703z" fill="#fff"/><path d="M95.786 175.35h-3.259v9.862h3.26v-9.862z" fill="#fff"/><path opacity=".2" d="M95.786 175.35h-3.259v9.862h3.26v-9.862z" fill="#263238"/><path d="M97.558 174.306h-2.087v10.906h2.087v-10.906z" fill="#fff"/><path opacity=".1" d="M97.558 174.306h-2.087v10.906h2.087v-10.906z" fill="#000"/><path d="M77.071 193.587h-3.258l-.448-6.305h4.154l-.448 6.305zm62.116 0h-3.259l-.448-6.305h4.154l-.447 6.305z" fill="#263238"/><path d="M142.778 155.656H70.222a1.564 1.564 0 00-1.564 1.564v29.641a1.563 1.563 0 001.564 1.563h72.556a1.562 1.562 0 001.563-1.563V157.22a1.56 1.56 0 00-1.563-1.564v0zm-1.568 3.131v12.137H71.772v-12.137h69.438zM71.79 185.31v-12.15h69.437v12.15H71.789z" fill="#fff" stroke="#263238" stroke-width=".75" stroke-linecap="round" stroke-linejoin="round"/><path d="M132.051 93.396H81.847a2.922 2.922 0 00-2.922 2.923v10.778a2.923 2.923 0 002.922 2.922h50.204a2.923 2.923 0 002.923-2.922V96.319a2.923 2.923 0 00-2.923-2.923z" fill="#263238" stroke="#263238" stroke-linecap="round" stroke-linejoin="round"/><path d="M131.157 92.502H80.953a2.922 2.922 0 00-2.923 2.922v10.778a2.922 2.922 0 002.923 2.922h50.204a2.922 2.922 0 002.922-2.922V95.424a2.922 2.922 0 00-2.922-2.922z" fill="#fff" stroke="#263238" stroke-linecap="round" stroke-linejoin="round"/><path d="M131.157 92.502H80.953a2.922 2.922 0 00-2.923 2.922v10.778a2.922 2.922 0 002.923 2.922h50.204a2.922 2.922 0 002.922-2.922V95.424a2.922 2.922 0 00-2.922-2.922z" stroke="#263238" stroke-linecap="round" stroke-linejoin="round"/><path d="M90.44 105.721h-7.382v-9.338h4.92l2.462 2.462v6.876z" fill="#fff"/><path opacity=".5" d="M90.44 105.721h-7.382v-9.338h4.92l2.462 2.462v6.876z" fill="#fff"/><path d="M90.44 105.721h-7.382v-9.338h4.92l2.462 2.462v6.876z" stroke="#263238" stroke-linecap="round" stroke-linejoin="round"/><path d="M87.978 98.845h2.462l-2.462-2.463v2.463z" fill="#fff" stroke="#263238" stroke-linecap="round" stroke-linejoin="round"/><path d="M84.697 101.337a.469.469 0 010-.933H88.8a.469.469 0 010 .933h-4.103zm0 1.964a.469.469 0 010-.933h3.208a.469.469 0 010 .933h-3.208z" fill="#858585" stroke="#263238" stroke-width=".75" stroke-linecap="round" stroke-linejoin="round"/><path d="M109.102 101.874H95.364a.966.966 0 000 1.93h13.738v-1.93z" fill="#fff"/><path d="M95.364 103.803a.966.966 0 010-1.929h32.717a.954.954 0 01.724.258.971.971 0 01.227 1.091.971.971 0 01-.951.58H95.364z" stroke="#263238" stroke-linecap="round" stroke-linejoin="round"/><path d="M109.413 99.258h-1.035v-.49l.984-2.33h.592v2.33h.256v.49h-.256v.626h-.541v-.626zm0-.49v-1.342l-.532 1.346.532-.004zm1.049.302v-.268h.511v.307c0 .247.107.337.281.337.175 0 .281-.09.281-.337v-.771c0-.247-.11-.34-.281-.34-.17 0-.281.093-.281.34v.03h-.511l.098-1.926h1.427v.494h-.946l-.042.822a.506.506 0 01.468-.25c.396 0 .601.28.601.787v.776c0 .553-.277.852-.809.852-.533 0-.797-.299-.797-.852zm1.951-1.265v-.852a.521.521 0 01.135-.4.521.521 0 01.598-.126.521.521 0 01.311.526v.852a.52.52 0 01-.311.527.519.519 0 01-.598-.126.52.52 0 01-.135-.4zm.699.026v-.912c0-.149-.068-.213-.175-.213-.106 0-.179.064-.179.213v.912c0 .153.064.217.179.217.115 0 .175-.068.175-.217zm1.073-1.389h.345l-1.333 3.447h-.345l1.333-3.447zm-.259 2.944v-.852a.52.52 0 01.521-.571.527.527 0 01.497.356.52.52 0 01.025.215v.852a.52.52 0 01-.522.571.526.526 0 01-.521-.571zm.698.025V98.5c0-.154-.068-.218-.179-.218-.11 0-.174.064-.174.218v.911c0 .154.064.218.174.218.111 0 .179-.064.179-.218z" fill="#263238"/><path d="M132.051 112.686H81.847a2.922 2.922 0 00-2.922 2.922v10.778a2.922 2.922 0 002.922 2.922h50.204a2.923 2.923 0 002.923-2.922v-10.778a2.923 2.923 0 00-2.923-2.922z" fill="#263238" stroke="#263238" stroke-linecap="round" stroke-linejoin="round"/><path d="M131.157 111.791H80.953a2.922 2.922 0 00-2.923 2.922v10.778a2.922 2.922 0 002.923 2.922h50.204a2.922 2.922 0 002.922-2.922v-10.778a2.922 2.922 0 00-2.922-2.922z" fill="#fff" stroke="#263238" stroke-linecap="round" stroke-linejoin="round"/><path d="M119.94 121.044H95.364a.966.966 0 000 1.929h24.576v-1.929z" fill="#fff"/><path d="M95.364 122.973a.966.966 0 010-1.929h32.717a.954.954 0 01.724.258.971.971 0 01.227 1.091.971.971 0 01-.951.58H95.364z" stroke="#263238" stroke-linecap="round" stroke-linejoin="round"/><path d="M108.442 118.258v-.307a.71.71 0 01.354-.703.685.685 0 01-.333-.677v-.141a.826.826 0 011.653 0v.141a.692.692 0 01-.336.677.716.716 0 01.358.703v.307a.85.85 0 01-1.455.602.85.85 0 01-.249-.602h.008zm1.155-.03v-.332c0-.26-.107-.388-.307-.388s-.307.128-.307.388v.332c0 .26.107.388.307.388s.307-.128.307-.388zm0-1.555v-.273c0-.225-.098-.345-.286-.345-.187 0-.285.12-.285.345v.273c0 .226.098.345.285.345.188 0 .264-.119.264-.345h.022zm.865 1.568v-.269h.511v.307c0 .247.107.336.281.336.175 0 .281-.089.281-.336v-.771c0-.247-.11-.341-.281-.341-.17 0-.281.094-.281.341v.03h-.511l.098-1.926h1.427v.494h-.946l-.042.823a.503.503 0 01.468-.252c.396 0 .601.281.601.788v.776a.808.808 0 01-1.131.8.8.8 0 01-.484-.8h.009zm1.951-1.266v-.852a.52.52 0 01.135-.4.513.513 0 01.176-.126.51.51 0 01.422 0 .513.513 0 01.286.312.519.519 0 01.025.214v.852a.522.522 0 01-.733.527.513.513 0 01-.285-.312.522.522 0 01-.026-.215zm.699.026v-.912c0-.149-.068-.217-.175-.217-.106 0-.179.068-.179.217v.912c0 .153.064.217.179.217.115 0 .175-.068.175-.217zm1.073-1.389h.345l-1.333 3.447h-.345l1.333-3.447zm-.259 2.944v-.852a.522.522 0 01.733-.527.524.524 0 01.31.527v.852a.519.519 0 01-.135.4.535.535 0 01-.175.127.533.533 0 01-.423 0 .525.525 0 01-.31-.527zm.698.025v-.911c0-.154-.068-.217-.179-.217-.11 0-.174.063-.174.217v.911c0 .154.064.218.174.218.111 0 .179-.064.179-.218z" fill="#263238"/><path d="M90.44 124.89h-7.382v-9.337h4.92l2.462 2.462v6.875z" fill="#fff"/><path opacity=".5" d="M90.44 124.89h-7.382v-9.337h4.92l2.462 2.462v6.875z" fill="#fff" stroke="#263238" stroke-linecap="round" stroke-linejoin="round"/><path d="M90.44 124.89h-7.382v-9.337h4.92l2.462 2.462v6.875z" stroke="#263238" stroke-linecap="round" stroke-linejoin="round"/><path d="M84.697 120.507a.469.469 0 010-.933H88.8a.469.469 0 010 .933h-4.103zm0 1.964a.469.469 0 010-.933h3.208a.469.469 0 010 .933h-3.208z" fill="#858585" stroke="#263238" stroke-width=".75" stroke-linecap="round" stroke-linejoin="round"/><path d="M87.978 118.015h2.462l-2.462-2.462v2.462z" fill="#fff" stroke="#263238" stroke-linecap="round" stroke-linejoin="round"/><path d="M138.915 67.64H74.981a2.922 2.922 0 00-2.922 2.923v14.854a2.922 2.922 0 002.922 2.923h63.934a2.922 2.922 0 002.922-2.923V70.563a2.922 2.922 0 00-2.922-2.923z" fill="#263238" stroke="#263238" stroke-linecap="round" stroke-linejoin="round"/><path d="M138.02 66.746H74.085a2.922 2.922 0 00-2.922 2.922v14.855a2.922 2.922 0 002.922 2.922h63.935a2.922 2.922 0 002.922-2.922V69.668a2.922 2.922 0 00-2.922-2.922z" fill="#fff" stroke="#263238" stroke-linecap="round" stroke-linejoin="round"/><path d="M95.518 85.741h-13.67V68.45h9.112l4.558 4.554V85.74z" fill="#fff"/><path opacity=".7" d="M95.518 85.741h-13.67V68.45h9.112l4.558 4.554V85.74z" fill="#fff"/><path d="M95.518 85.741h-13.67V68.45h9.112l4.558 4.554V85.74z" stroke="#263238" stroke-linecap="round" stroke-linejoin="round"/><path d="M90.96 73.004h4.558L90.96 68.45v4.554z" fill="#fff" stroke="#263238" stroke-linecap="round" stroke-linejoin="round"/><path d="M85.881 75.134h-2.684v2.683h2.684v-2.683zm2.761 0h-2.684v2.683h2.684v-2.683zm2.764 0h-2.683v2.683h2.683v-2.683zm2.761 0h-2.684v2.683h2.684v-2.683z" stroke="#fff" stroke-width=".75" stroke-linecap="round" stroke-linejoin="round"/><path d="M85.881 77.817h-2.684v2.684h2.684v-2.684zm2.761 0h-2.684v2.684h2.684v-2.684zm2.764 0h-2.683v2.684h2.683v-2.684zm2.761 0h-2.684v2.684h2.684v-2.684zm-8.286 2.684h-2.684v2.684h2.684v-2.684zm2.761 0h-2.684v2.684h2.684v-2.684zm2.764 0h-2.683v2.684h2.683v-2.684zm2.761 0h-2.684v2.684h2.684v-2.684z" stroke="#fff" stroke-width=".75" stroke-linecap="round" stroke-linejoin="round"/><path d="M83.249 82.925l2.71-2.488 1.341.064 1.466-2.645 1.299 1.303 1.457-1.529 1.303-2.496" stroke="#fff" stroke-width="2" stroke-linecap="round" stroke-linejoin="round"/><path d="M91.287 75.913l1.538-.78.31 1.68" stroke="#fff" stroke-width="2" stroke-linecap="round" stroke-linejoin="round"/><path d="M100.894 76.544h-.784v-.52c.622 0 .852-.136 1.014-.592h.494v4.686h-.737l.013-3.574zm1.596 2.47v-2.47a1.12 1.12 0 012.241 0v2.47a1.12 1.12 0 11-2.241 0zm1.504.047v-2.556c0-.332-.149-.46-.383-.46-.235 0-.384.128-.384.46v2.556c0 .337.149.465.384.465.234 0 .383-.128.383-.465zm1.181-.047v-2.47a1.12 1.12 0 012.241 0v2.47a1.12 1.12 0 11-2.241 0zm1.504.047v-2.556c0-.332-.15-.46-.384-.46s-.383.128-.383.46v2.556c0 .337.149.465.383.465s.384-.128.384-.465zm1.193-1.771v-1.172a.713.713 0 011.423 0v1.171a.713.713 0 01-1.215.503.713.713 0 01-.208-.503zm.954.033v-1.24c0-.208-.093-.297-.243-.297-.149 0-.242.089-.242.298v1.24c0 .208.089.293.242.293.154 0 .243-.085.243-.294zm1.461-1.891h.473l-1.819 4.686h-.468l1.814-4.686zm-.357 4.013v-1.176a.706.706 0 01.439-.657.71.71 0 01.983.657v1.176a.706.706 0 01-.439.657.712.712 0 01-.983-.657zm.954.034v-1.244c0-.209-.094-.294-.243-.294s-.239.085-.239.294v1.244c0 .204.086.294.239.294s.243-.09.243-.294zm1.661-.819v-1.852a.798.798 0 011.36-.564c.149.15.233.353.233.564v.366h-.511v-.4c0-.226-.111-.32-.273-.32-.162 0-.268.094-.268.32v1.925c0 .226.106.316.268.316.162 0 .273-.09.273-.316v-.528h.511v.49a.798.798 0 01-1.36.563.798.798 0 01-.233-.563zm1.887-.02v-1.81a.822.822 0 111.644 0v1.81a.823.823 0 01-1.644 0zm1.103.034v-1.879c0-.247-.107-.34-.281-.34-.175 0-.281.093-.281.34v1.879c0 .247.11.34.281.34.17 0 .281-.093.281-.34zm.903-2.663h.776l.345 2.467.345-2.467h.771v3.447h-.511V76.85l-.396 2.608h-.452l-.392-2.608v2.608h-.473l-.013-3.447zm2.651 0h.796c.542 0 .806.303.806.852v.341c0 .55-.264.852-.806.852h-.255v1.402h-.541V76.01zm.796 1.55c.171 0 .265-.076.265-.323v-.426c0-.247-.094-.324-.265-.324h-.255v1.057l.255.017zm1.098-1.55h.541v2.952h.891v.495h-1.432V76.01zm1.705 0h1.473v.494h-.932v.908h.736v.494h-.741v1.056h.933v.495h-1.469V76.01zm2.198.494h-.563v-.494h1.67v.494h-.566v2.953h-.541v-2.953zm1.372-.494h1.474v.494h-.933v.908h.741v.494h-.741v1.056h.933v.495h-1.474V76.01zm1.785 0h.826c.541 0 .806.303.806.852v1.743c0 .55-.265.852-.806.852h-.826V76.01zm.814 2.952c.174 0 .277-.089.277-.332v-1.793c0-.243-.103-.333-.277-.333h-.273v2.458h.273z" fill="#263238"/><path d="M132.051 131.979H81.847a2.923 2.923 0 00-2.922 2.922v10.778a2.923 2.923 0 002.922 2.923h50.204a2.923 2.923 0 002.923-2.923v-10.778a2.923 2.923 0 00-2.923-2.922z" fill="#263238" stroke="#263238" stroke-linecap="round" stroke-linejoin="round"/><path d="M131.157 131.085H80.953a2.922 2.922 0 00-2.923 2.922v10.778a2.922 2.922 0 002.923 2.922h50.204a2.922 2.922 0 002.922-2.922v-10.778a2.922 2.922 0 00-2.922-2.922z" fill="#fff" stroke="#263238" stroke-linecap="round" stroke-linejoin="round"/><path d="M118.206 140.218H95.364a.961.961 0 00-.68 1.643c.18.181.425.282.68.282h22.842v-1.925z" fill="#fff"/><path d="M95.364 142.143a.961.961 0 01-.68-1.643.961.961 0 01.68-.282h32.717a.966.966 0 01.889.594.953.953 0 010 .737.953.953 0 01-.521.521.966.966 0 01-.368.073H95.364z" stroke="#263238" stroke-linecap="round" stroke-linejoin="round"/><path d="M90.44 144.065h-7.382v-9.338h4.92l2.462 2.458v6.88z" fill="#fff"/><path opacity=".5" d="M90.44 144.065h-7.382v-9.338h4.92l2.462 2.458v6.88z" fill="#fff"/><path d="M90.44 144.065h-7.382v-9.338h4.92l2.462 2.458v6.88z" stroke="#263238" stroke-linecap="round" stroke-linejoin="round"/><path d="M84.697 139.681a.469.469 0 010-.933H88.8a.467.467 0 010 .933h-4.103zm0 1.96a.465.465 0 010-.929h3.208a.465.465 0 010 .929h-3.208z" fill="#858585" stroke="#263238" stroke-width=".75" stroke-linecap="round" stroke-linejoin="round"/><path d="M87.978 137.185h2.462l-2.462-2.458v2.458z" fill="#fff" stroke="#263238" stroke-linecap="round" stroke-linejoin="round"/><path d="M109.567 135.276h-1.094v-.49h1.623v.473l-.852 2.982h-.554l.877-2.965zm.869 2.139v-1.811a.821.821 0 111.644 0v1.811a.822.822 0 01-1.644 0zm1.103.034v-1.879c0-.247-.111-.341-.281-.341-.171 0-.281.094-.281.341v1.879c0 .247.11.336.281.336.17 0 .281-.089.281-.336zm.874-1.299v-.852a.522.522 0 01.311-.527.526.526 0 01.598.126.522.522 0 01.135.401v.852a.519.519 0 01-.311.526.51.51 0 01-.422 0 .513.513 0 01-.285-.312.52.52 0 01-.026-.214zm.699.025v-.911c0-.154-.068-.218-.175-.218-.106 0-.179.064-.179.218v.911c0 .149.064.213.179.213.115 0 .175-.068.175-.213zm1.056-1.389h.345l-1.333 3.443h-.345l1.333-3.443zm-.259 2.944v-.852a.519.519 0 01.135-.401.532.532 0 01.598-.126.528.528 0 01.31.527v.852a.522.522 0 01-.733.527.537.537 0 01-.285-.312.522.522 0 01-.025-.215zm.698.021v-.907c0-.153-.068-.217-.179-.217-.111 0-.174.064-.174.217v.907c0 .154.063.218.174.218.111 0 .196-.064.196-.218h-.017z" fill="#263238"/><path d="M50.455 46.945l11.242-8.69 11.242 8.69H50.455z" fill="#263238" stroke="#263238" stroke-linecap="round" stroke-linejoin="round"/><path d="M64.637 37.573h-5.88V42.6h5.88v-5.027z" fill="#263238" stroke="#263238" stroke-linecap="round" stroke-linejoin="round"/><path d="M61.697 25.083V42.6" stroke="#263238" stroke-width=".75" stroke-linecap="round" stroke-linejoin="round"/><path d="M140.056 46.945l11.246-8.69 11.242 8.69h-22.488z" fill="#263238" stroke="#263238" stroke-linecap="round" stroke-linejoin="round"/><path d="M154.241 37.573h-5.879V42.6h5.879v-5.027z" fill="#263238" stroke="#263238" stroke-linecap="round" stroke-linejoin="round"/><path d="M151.302 24.23V42.6" stroke="#263238" stroke-width=".75" stroke-linecap="round" stroke-linejoin="round"/><path d="M155.691 182.579l-.239 7.029 3.638.175 1.325-7.204h-4.724z" fill="#fff" stroke="#263238" stroke-linecap="round" stroke-linejoin="round"/><path d="M148.572 191.764c1.227-.426 3.349-1.15 4.145-1.649.639-.4 1.53-1.704 2.19-2.07a1.103 1.103 0 01.877 0 .812.812 0 01.201.426.359.359 0 00.505.234.368.368 0 00.155-.14c.102-.2.247-.375.426-.512.562-.315 2.083-.404 2.581 0 .827.678 1.125 3.012 1.278 4.065.039.23 0 1.508 0 1.508h-13.274v-.584a1.334 1.334 0 01.916-1.278v0z" fill="#fff" stroke="#263238" stroke-linecap="round" stroke-linejoin="round"/><path d="M160.939 193.617h-13.283v-.584c0-.145.025-.289.073-.426h13.227c0 .448-.017 1.01-.017 1.01z" fill="#858585" stroke="#263238" stroke-linecap="round" stroke-linejoin="round"/><path d="M157.986 128.085l-2.791 57.17 5.112.852s3.221-16.546 3.613-21.965c.094-1.278 0-5.133 0-5.133l3.617-17.803s2.381-2.198 2.658-12.665l-12.209-.456z" fill="#263238" stroke="#263238" stroke-linecap="round" stroke-linejoin="round"/><path opacity=".7" d="M165.553 150.212c.196-.827.426-1.64.703-2.45.042-.115.093-.221.144-.328.127-1.21.322-2.411.584-3.599.09-.444.329-.844.677-1.134a1.657 1.657 0 011.078-.924 22.018 22.018 0 00-.716-3.25c-.323-1.116-.852-2.186-1.009-3.34-.043-.298-.213-.609-.158-.643a11.118 11.118 0 01-1.073-.486l-.064-.051a161.313 161.313 0 00-.166 16.205z" fill="#000"/><path d="M157.743 160.785a5.107 5.107 0 002.403-1.308" stroke="#7F7F7F" stroke-width=".75" stroke-linecap="round" stroke-linejoin="round"/><path d="M154.523 186.341l6.182.507.46-2.002-6.642-.52v2.015zm17.85-4.626l1.316 8.217 3.366-.264-.111-8.413-4.571.46z" fill="#fff" stroke="#263238" stroke-linecap="round" stroke-linejoin="round"/><path d="M166.736 191.764c1.231-.426 3.352-1.15 4.145-1.649.639-.4 1.533-1.704 2.189-2.07a1.12 1.12 0 01.882 0 .62.62 0 01.158.285.424.424 0 00.606.263.424.424 0 00.178-.173c.087-.147.203-.275.341-.375.562-.315 2.083-.405 2.581 0 .827.677 1.125 3.012 1.278 4.064.034.23 0 1.508 0 1.508h-13.27v-.584a1.34 1.34 0 01.912-1.269v0z" fill="#fff" stroke="#263238" stroke-linecap="round" stroke-linejoin="round"/><path d="M179.107 193.617h-13.283v-.584a1.319 1.319 0 01.068-.426h13.228c0 .448-.013 1.01-.013 1.01z" fill="#858585" stroke="#263238" stroke-linecap="round" stroke-linejoin="round"/><path d="M165.101 129.811s1.278 7.399 2.453 13.606c.801 4.209.852 16.644.852 16.644l4.081 25.675 5.031-.677s.06-15.805-.506-20.874c-.128-1.129-.337-4.482-.337-4.482s.192-13.41 1.227-17.892c.741-3.195 2.215-6.552.426-13.099l-13.227 1.099z" fill="#263238" stroke="#263238" stroke-linecap="round" stroke-linejoin="round"/><path d="M169.511 160.785a3.466 3.466 0 002.13 1.368" stroke="#7F7F7F" stroke-width=".75" stroke-linecap="round" stroke-linejoin="round"/><path d="M171.644 184.582l.289 1.882 6.237-.668-.043-2.028-6.483.814z" fill="#fff" stroke="#263238" stroke-linecap="round" stroke-linejoin="round"/><path d="M141.36 95.582l-1.376-2.314s-.333-3.778-1.099-4.515c-.767-.737-2.471-2.906-2.714-2.48-.383.682 1.035 1.896 1.035 1.896l.26 1.406s-2.296-1.653-2.944-1.653c0 0-1.831-2.168-2.479-2.172-.647-.005.264 1.499.264 1.499s-.617-.473-.737-.179c-.119.294.797 1.3.797 1.3s-.354.383.179 1.205a1.502 1.502 0 00.426 1.504c.707.562 4.507 2.713 4.507 2.713l1.278 3.008 2.603-1.218z" fill="#858585" stroke="#263238" stroke-linecap="round" stroke-linejoin="round"/><path d="M132.87 88.43s.503.204.294.94c.201.286.313.623.324.972.051.647 3.331.328 4.217 1.704m-4.835-4.414l1.338 1.415" stroke="#263238" stroke-width=".75" stroke-linecap="round" stroke-linejoin="round"/><path d="M155.563 94.998l-8.78 6.842-6.015-8.197-3.063 1.534s4.814 13.3 8.456 13.3c3.873 0 11.234-6.22 11.234-6.22s.464-1.189-1.832-7.259z" fill="#fff" stroke="#263238" stroke-linecap="round" stroke-linejoin="round"/><path d="M147.114 102.491c.206.437.359.896.456 1.368" stroke="#263238" stroke-width=".75" stroke-linecap="round" stroke-linejoin="round"/><path d="M155.562 94.998l1.871 24.755v10.283s10.773 1.278 21.402-.272l-.366-10.586 1.077-23.596s-4.933-3.566-12.507-3.566-11.477 2.982-11.477 2.982z" fill="#fff" stroke="#263238" stroke-linecap="round" stroke-linejoin="round"/><path opacity=".2" d="M178.836 129.764l-.341-9.487c-.183 4.571-5.227 2.854-6.369 2.641-1.222-.23-2.628 3.8-2.628 3.8s-4.686.805-8.354.52c-3.668-.286-3.723-3.634-3.723-3.634v6.432s10.786 1.296 21.415-.272z" fill="#000"/><path d="M162.48 119.514a28.429 28.429 0 0012.644-4.554z" fill="#fff"/><path d="M162.48 119.514a28.429 28.429 0 0012.644-4.554" stroke="#263238" stroke-width=".75" stroke-linecap="round" stroke-linejoin="round"/><path d="M160.602 119.642s.362 0 1.001-.047z" fill="#fff"/><path d="M160.602 119.642s.362 0 1.001-.047" stroke="#263238" stroke-width=".75" stroke-linecap="round" stroke-linejoin="round"/><path d="M164.248 96.19l-1.866-.677-1.78 1.721 1.303-5.325 1.572-1.235.801.507 3.578-.136 2.782.225 1.325-.408 1.414 1.414-3.148 6.02-1.32-2.28-2.914.362-1.747-.187z" fill="#fff"/><path opacity=".5" d="M164.248 96.19l-1.866-.677-1.78 1.721 1.303-5.325 1.572-1.235.801.507 3.578-.136 2.782.225 1.325-.408 1.414 1.414-3.148 6.02-1.32-2.28-2.914.362-1.747-.187z" fill="#fff"/><path d="M164.248 96.19l-1.866-.677-1.78 1.721 1.303-5.325 1.572-1.235.801.507 3.578-.136 2.782.225 1.325-.408 1.414 1.414-3.148 6.02-1.32-2.28-2.914.362-1.747-.187z" stroke="#263238" stroke-linecap="round" stroke-linejoin="round"/><path d="M170.447 92.259l-.426-6.51-4.115.729-.852 3.059-.852 2.65-.405.042 1.12 6.083 5.939-5.964-.409-.09z" fill="#858585"/><path d="M160.33 86.201c0 1.653.256 5.35 2.526 5.78 2.352.448 5.048-2.227 6.015-3.296a2.81 2.81 0 00.558-.912l.516-1.367a1.77 1.77 0 00.971-.205H160.33z" fill="#263238" stroke="#263238" stroke-width=".5" stroke-linecap="round" stroke-linejoin="round"/><path d="M170.447 92.259l-.426-6.51-4.115.729-.852 3.059-.852 2.65-.405.042 1.12 6.083 5.939-5.964-.409-.09z" stroke="#263238" stroke-linecap="round" stroke-linejoin="round"/><path d="M163.073 77.843s-1.947-1.483-.992-2.65c.498-.605 1.146.192 1.146.192s-.345-1.857 1.039-2.13c1.278-.239 1.227 1.227 1.227 1.227s.66-1.257 1.815-.976c.92.222.566 1.525.566 1.525s1.227-1.525 2.497-.852c1.094.575.191 1.956.191 1.956s1.304-.46 2.032.272c.729.733 0 1.704 0 1.704s1.436 0 1.5 1.074c.064 1.073-1.112 1.278-1.112 1.278s1.661.537 1.674 1.84c.013 1.304-1.099.886-1.099.886s.69 1.227.115 1.879a.69.69 0 01-.558.281.695.695 0 01-.558-.281s.72 1.546-.192 1.998c-.652.32-1.035-.465-1.035-.465s-.549 1.338-1.214.52c-.665-.818-3.962-7.118-3.962-7.118l-3.08-2.16z" fill="#263238" stroke="#263238" stroke-width=".75" stroke-linecap="round" stroke-linejoin="round"/><path d="M162.511 77.903l-1.227 2.556a1.992 1.992 0 00-.191.852v.8l-.678 1.705c-.035.088-.063.18-.085.272-.217.908-1.252 5.781 1.278 6.774 2.232.877 5.376-1.24 6.531-2.11.287-.216.531-.486.715-.796l.767-1.244a1.61 1.61 0 001.785-.626c.686-.984 1.478-1.516.537-2.403-.942-.886-1.811.533-1.811.533l.128-2.5-1.091-1.918-.055-1.205s-3.57-.396-5.964-1.704l-.639 1.014z" fill="#fff" stroke="#263238" stroke-width=".75" stroke-linecap="round" stroke-linejoin="round"/><path d="M162.511 77.903l-1.227 2.556a1.992 1.992 0 00-.191.852v.8l-.678 1.705c-.035.088-.063.18-.085.272-.217.908-1.252 5.781 1.278 6.774 2.232.877 5.376-1.24 6.531-2.11.287-.216.531-.486.715-.796l.767-1.244a1.61 1.61 0 001.785-.626c.686-.984 1.478-1.516.537-2.403-.942-.886-1.811.533-1.811.533l.128-2.5-1.091-1.918-.055-1.205s-3.57-.396-5.964-1.704l-.639 1.014z" fill="#858585" stroke="#263238" stroke-linecap="round" stroke-linejoin="round"/><path d="M164.683 86.631c-.69 1.334-1.627 1.112-2.215.78" stroke="#263238" stroke-width=".75" stroke-linecap="round" stroke-linejoin="round"/><path d="M164.695 83.603c-.093.302-.285.51-.426.468-.14-.043-.187-.328-.093-.63.093-.303.285-.516.426-.469.14.047.187.328.093.63zm-2.844-.883c-.094.307-.286.516-.426.47-.141-.048-.188-.329-.094-.631.094-.303.29-.511.426-.465.136.047.187.324.094.627z" fill="#263238"/><path d="M161.646 80.753a.85.85 0 011.065.651m1.385.511s.992-1.043 1.661.064m-3.025 1.011a2.445 2.445 0 01-1.576 1.784l.776 1.231" stroke="#263238" stroke-width=".75" stroke-linecap="round" stroke-linejoin="round"/><path d="M167.678 131.83l-.217 1.316a.85.85 0 00.686.959l13.661 2.241a.851.851 0 00.959-.686l.213-1.317-15.302-2.513z" fill="#fff" stroke="#263238" stroke-width=".75" stroke-linecap="round" stroke-linejoin="round"/><path d="M183.592 126.049l-13.818-2.268a.754.754 0 00-.866.622l-1.369 8.344a.755.755 0 00.622.867l13.817 2.267a.755.755 0 00.867-.622l1.369-8.344a.753.753 0 00-.622-.866z" fill="#fff"/><path opacity=".5" d="M183.591 126.049l-13.818-2.268a.754.754 0 00-.866.622l-1.369 8.344a.755.755 0 00.622.867l13.817 2.267a.755.755 0 00.867-.622l1.369-8.344a.753.753 0 00-.622-.866z" fill="#fff"/><path d="M183.592 126.049l-13.818-2.268a.754.754 0 00-.866.622l-1.369 8.344a.755.755 0 00.622.867l13.817 2.267a.755.755 0 00.867-.622l1.369-8.344a.753.753 0 00-.622-.866z" stroke="#263238" stroke-linecap="round" stroke-linejoin="round"/><path d="M178.26 127.604l-.754 2.556-2.556 1.828a30.227 30.227 0 01-1.278 3.284.399.399 0 00.332.592c.354 0 .767-.166.993-.852 0 0 .098 1.346.929.524 0 0 .507 1.304 1.299.277 0 0 1.836.273 2.13-1.052.294-1.325.728-3.66.728-3.66l1.168-2.739-2.991-.758z" fill="#858585" stroke="#263238" stroke-linecap="round" stroke-linejoin="round"/><path d="M174.979 134.488l.29-1.972m.167 2.1s.2.652.651.545c.452-.106 1.095.396 2.501-.196" stroke="#263238" stroke-width=".75" stroke-linecap="round" stroke-linejoin="round"/><path d="M179.547 95.582s6.39 17.755 6.271 20.35c-.12 2.594-4.665 13.879-4.665 13.879l-3.51-1.116 2.343-13.236-2.101-9.198s-.477-6.743 1.662-10.68z" fill="#fff" stroke="#263238" stroke-linecap="round" stroke-linejoin="round"/><path d="M180.772 115.165a1.981 1.981 0 011.679-.354" stroke="#263238" stroke-width=".75" stroke-linecap="round" stroke-linejoin="round"/><path d="M176.62 128.976a1.73 1.73 0 01-.281-.563.974.974 0 00-.986.884.97.97 0 00.811 1.046.976.976 0 001.12-.801 1.453 1.453 0 01-.664-.566zM51.946 91.5l.775 3.822-8.614.362 1.496-10.59 5.802.673.54 5.734z" fill="#fff"/><path d="M55.806 85.703l-7.203 2.13c.09.825.26 1.64.51 2.432.427 1.227 3.021 3.408 4.687 3.382 1.665-.025 1.853-5.333 1.853-5.333l1.005-.558a.469.469 0 00.145-.686l-.997-1.367z" fill="#263238" stroke="#263238" stroke-width=".75" stroke-linecap="round" stroke-linejoin="round"/><path d="M51.946 91.5l.775 3.822-8.614.362 1.496-10.59 5.802.673.54 5.734z" stroke="#263238" stroke-linecap="round" stroke-linejoin="round"/><path d="M52.342 78.039s2.092.426 1.879-1.845c-.213-2.27-4.111-.882-6.143-.626s-8.593 2.705-6.27 6.573c0 0-1.368 2.181 3.556 5.84 0 0 2.339-1.098 3.621.508l1.001-1.951 2.556-4.49-.2-4.01z" fill="#263238" stroke="#263238" stroke-linecap="round" stroke-linejoin="round"/><path d="M52.188 77.698s2.003 1.116 3.153-.281c0 0 .128 2.982-3.153.281z" fill="#263238" stroke="#263238" stroke-linecap="round" stroke-linejoin="round"/><path d="M52.398 77.387s2.982 3.14 2.88 5.291v1.964l1.576 1.772a.425.425 0 01-.077.656l-.916.635s.269 5.027-1.308 5.206c-1.576.178-4.2-1.704-4.724-2.812a15.393 15.393 0 01-.852-3.148 2.381 2.381 0 01-1.742-2.02c-.184-1.652 1.482-1.605 1.913-.523l.349.882 1.082-.039s-.618-1.559-.252-2.02c.367-.46 1.807-1.58 1.146-2.649-.66-1.07-.438-2.888.925-3.195z" fill="#fff" stroke="#263238" stroke-linecap="round" stroke-linejoin="round"/><path d="M54.102 88.689a1.205 1.205 0 001.278.592" stroke="#263238" stroke-width=".75" stroke-linecap="round" stroke-linejoin="round"/><path d="M53.318 82.69s.678-.94 1.321-.08" stroke="#263238" stroke-linecap="round" stroke-linejoin="round"/><path d="M54.387 84.655c0 .294-.115.537-.273.54-.157.005-.293-.23-.302-.523-.009-.294.115-.537.273-.541.157-.005.294.217.302.524z" fill="#263238"/><path d="M40.725 179.022l-1.244 10.706 3.702.57 2.04-10.581-4.498-.695z" fill="#fff" stroke="#263238" stroke-linecap="round" stroke-linejoin="round"/><path d="M38.983 131.719s.15 6.203 2.34 10.565l.498 16.461-2.527 26.522 5.62.537 5.111-27.741 1.704-25.134-12.746-1.21z" fill="#fff" stroke="#263238" stroke-linecap="round" stroke-linejoin="round"/><path opacity=".2" d="M50.937 145.015l-.47-2.952-2.13-9.292-.391-.2-8.946-.852s0 1.018.2 2.522l4.418 2.505a14.78 14.78 0 001.052 4.58.804.804 0 01-.81 1.111c-.455-.034-.851 0-.851.299 0 .69 3.331 2.918 3.331 2.918s3.361 10.863 3.242 14.876l.456-2.471.899-13.044z" fill="#000"/><path d="M52.023 179.725l.405 10.769h3.745l.4-10.769h-4.55z" fill="#fff" stroke="#263238" stroke-linecap="round" stroke-linejoin="round"/><path d="M62.136 192.011a23.337 23.337 0 01-3.595-1.431c-.554-.345-1.33-1.474-1.9-1.794a.968.968 0 00-.759 0c-.272.222-.285 1.376-.285 1.376s-.482-1.176-.83-1.376c-.486-.272-1.807-.353-2.237 0-.716.584-.976 2.612-1.116 3.523-.035.2 0 1.308 0 1.308h11.502v-.507a1.157 1.157 0 00-.78-1.099v0z" fill="#263238" stroke="#263238" stroke-linecap="round" stroke-linejoin="round"/><path d="M59.857 132.23l-.92 24.883-1.538 28.41h-5.853s-1.227-21.807-.92-28.116l-3.072-14.591s-3.224-4.302-2.458-9.521l14.761-1.065z" fill="#fff" stroke="#263238" stroke-linecap="round" stroke-linejoin="round"/><path d="M51.026 183.41l.192 3.417h6.411l.499-3.417h-7.102zm-12.201-.294l-.132 3.417 6.382.609.822-3.353-7.072-.673zm30.737-67.265l-8.857-5.632 9.334-9.334 8.86 5.632-9.337 9.334z" fill="#fff" stroke="#263238" stroke-linecap="round" stroke-linejoin="round"/><path d="M70.068 113.925l-7.123-4.528 7.506-7.506 7.123 4.528-7.506 7.506z" fill="#fff" stroke="#263238" stroke-width=".75" stroke-linecap="round" stroke-linejoin="round"/><path d="M70.588 106.151l1.244-1.244-1.598-1.014-1.244 1.24 1.598 1.018zm-1.929 1.934l1.244-1.244-1.602-1.018-1.24 1.244 1.598 1.018zm-1.999 1.998l1.24-1.244-1.598-1.018-1.243 1.244 1.601 1.018z" stroke="#263238" stroke-width=".75" stroke-linecap="round" stroke-linejoin="round"/><path d="M73.633 102.338l-1.175 1.18a.522.522 0 00-.075.648.522.522 0 00.164.166l1.704 1.094a.979.979 0 001.219-.132l1.086-1.09-2.922-1.866zm-31.515-7.272l1.538-3.378s8.908-.997 11.285 6.45l-12.823-3.072zm-5.056 2.88s-2.198 16.84-1.615 22.808c.46 4.72 3.57 8.716 3.57 8.716l4.61-1.806-2.344-6.91s.729-12.439 1.419-15.336l-5.64-7.472z" fill="#858585" stroke="#263238" stroke-linecap="round" stroke-linejoin="round"/><path d="M37.684 128.643l1.299 1.555 5.325-2.074-.69-2.075-5.934 2.594z" fill="#858585" stroke="#263238" stroke-linecap="round" stroke-linejoin="round"/><path d="M37.06 97.946s-.694 9.674 1.279 16.473c1.972 6.799 0 17.965 0 17.965s9.078 5.874 23.004 1.38c0 0-1.725-33.058-4.03-34.898-2.305-1.84-15.31-8.865-20.252-.92z" fill="#858585" stroke="#263238" stroke-linecap="round" stroke-linejoin="round"/><path opacity=".2" d="M61.343 133.764s-.592-11.332-1.542-21.096c-2.015-4.89-5.308-11.404-5.482-2.257-.256 13.227 7.885 12.447 1.435 14.752a10.477 10.477 0 01-8.895-.69.524.524 0 00-.648.134.53.53 0 00-.008.663c1.62 2.057 4.077 3.339 5.964 4.076a.83.83 0 01.527.86.827.827 0 01-.697.729c-6.075.899-10.837-2.33-13.023-4.209-.255 3.255-.677 5.658-.677 5.658s9.12 5.874 23.047 1.38z" fill="#000"/><path d="M57.323 98.87a5.417 5.417 0 013.11 4.201c.46 3.169 3.408 12.903 3.408 12.903l.98-.635a4.078 4.078 0 012.35 4.367s-2.393 4.686-5.009 3.804c-2.688-.912-4.192-3.11-5.538-6.705-.711-1.917-2.765-7.694-2.765-7.694" fill="#858585"/><path d="M57.323 98.87a5.417 5.417 0 013.11 4.201c.46 3.169 3.408 12.903 3.408 12.903l.98-.635a4.078 4.078 0 012.35 4.367s-2.393 4.686-5.009 3.804c-2.688-.912-4.192-3.11-5.538-6.705-.711-1.917-2.765-7.694-2.765-7.694" stroke="#263238" stroke-linecap="round" stroke-linejoin="round"/><path d="M65.016 118.794c.016.251.004.502-.034.75m-1.725 1.21s.805-1.278.69-4.034c.387.293.683.69.852 1.146" stroke="#263238" stroke-width=".75" stroke-linecap="round" stroke-linejoin="round"/><path d="M65.463 115.071l3.071-2.19a3.883 3.883 0 012.727-2.879s1.418-2.343 2.224-2.071c.805.273-.959 1.227-1.112 2.454l.651.873s2.13-.374 2.65-1.065c0 0-.115 1.462-.958 1.704 0 0 0 1.112-.575 1.074l-4.226 1.193-2.458 4.588-1.994-3.681z" fill="#fff" stroke="#263238" stroke-linecap="round" stroke-linejoin="round"/><path d="M52.888 125.721a9.363 9.363 0 001.44-.247m-13.513-6.735s4.529 6.927 11.076 7.02" stroke="#263238" stroke-width=".75" stroke-linecap="round" stroke-linejoin="round"/><path d="M64.139 115.148s3.203 2.419 2.897 5.338l1.154-2.211s-.038-1.862-2.688-3.834l-1.363.707z" fill="#858585" stroke="#263238" stroke-linecap="round" stroke-linejoin="round"/><path d="M51.414 193.617h11.502v-.507c0-.124-.02-.248-.06-.366H51.398c0 .387.017.873.017.873z" fill="#fff" stroke="#263238" stroke-width=".75" stroke-linecap="round" stroke-linejoin="round"/><path d="M48.99 192.011a23.337 23.337 0 01-3.596-1.431c-.554-.345-1.329-1.474-1.896-1.794a.98.98 0 00-.762 0c-.273.222-.286 1.376-.286 1.376s-.477-1.176-.83-1.376c-.486-.272-1.806-.353-2.237 0-.716.584-.975 2.612-1.116 3.523-.034.2 0 1.308 0 1.308H49.77v-.507a1.156 1.156 0 00-.78-1.099v0z" fill="#263238" stroke="#263238" stroke-linecap="round" stroke-linejoin="round"/><path d="M38.26 193.617h11.5v-.507c0-.124-.02-.248-.06-.366H38.243c0 .387.017.873.017.873z" fill="#fff" stroke="#263238" stroke-width=".75" stroke-linecap="round" stroke-linejoin="round"/><path d="M55.227 157.573s-1.223 2.109-3.204 1.304m-5.321-.563s-2.194 1.875-4.009.563" stroke="#263238" stroke-width=".75" stroke-linecap="round" stroke-linejoin="round"/><path d="M69.595 103.744l.306 1.525h2.718l-2.21-.516.106-1.039-.92.03z" fill="#fff"/></svg>