<svg width="424" height="424" fill="none" xmlns="http://www.w3.org/2000/svg"><path d="M209.931 158.763c.415-.06.457-2.188.22-2.214-.848-.076-1.17 2.358-.22 2.214zm-90.041 30.858c.695-.254 5.181.687 5.181-.737 0-.916-4.613-2.121-5.181-1.697.045.61.299 1.186.721 1.629 0 .449-1.942-.051-2.112.424a1.028 1.028 0 001.391.381z" stroke="gray" stroke-miterlimit="10"/><path d="M160.585 217.673c-1.882.102-3.697-2.315-5.757-2.603-1.832-.255-1.942-.45-3.554.212 1.798-.738-2.9-2.909-2.925-2.917-.789-.212-1.594 1.925-2.307 1.619.144.06.848-1.696.127-2.357-.72-.662-2.001.933-2.069.89.119.068 2.01-4.732-.296-5.987-2.222-1.458-4.045-1.187-6.064-2.196-1.882-.95-2.052-3.282-4.698-3.112 1.077-.068-2.086-2.824-1.212-2.476-1.408-.56-4.13.627-5.936.22-.721-.152-1.187-2.001-2.23-2.001-1.595 0-1.162 2.858-1.417 3.392-.737 1.62-1.034-4.24-.288-3.765-.534-.339-4.24 2.239-4.655 2.544-.848.627-1.171 1.848-2.036 2.103 1.459-.433-4.664-1.111-3.392-.628-3.875-1.475-2.103-1.975-3.154-5.393-.305-.967.704-1.425-.119-2.306-.822-.882-4.087-1.018-5.088-.374-.712.39.093-2.679.407-3.002 1.264-1.28 1.696-4.24-.288-4.307-3.248-.085-1.645 2.79-3.664 3.79-6.071 3.019-6.343-5.52-6.148-9.107a1.366 1.366 0 000 0c.331-6.318 4.885-4.605 8.684-4.164-1.001-.119-.153-1.628 1.001-1.696a8.989 8.989 0 013.129.687c1.916.568 1.433 0 2.857 2.417.56.966.781 3.392 2.036 3.79.11 0-.068-8.836.653-9.896.907-1.34 3.078-3.002 3.765-3.884 1.569-2.01.059.255.254-2.077 0-.246-.627-3.57.441-3.57-.415 0 .365 3.12.322 3.146 1.069-.738.373-1.824.424-2.663 0-.67 3.46-1.815 3.74-2.425.119-.255-1.654 0-1.654-.051 0-.899 2.782-.746 3.189-1.026a8.294 8.294 0 011.179-3.24c1.255-1.297 4.384-1.009 5.351-2.993-.119.246.415 1.229 1.085 1.034-2.468.721-3.646 2.036-.687 1.595 1.51-.229 3.799-1.696 4.927-2.544.068-.051-.517-.78-.433-1.289-.05.322-1.865 1.755-2.289 1.696-2.883-.526-1.51-2.459-2.629-3.206a1.874 1.874 0 01-.958.178c-.305-1.034 3.485-1.814-.161-2.289-2.544-.331-3.774 3.332-5.504 3.332.848 0 4.673-4.647 6.479-5.088.721-.237 10.897-.975 10.049-3.222a7.271 7.271 0 00-.721-.365c-.704-.653 1.84-1.297-.984-1.628a3.5 3.5 0 01-.076-.941c-.271-.187-3.121.992-3.121.984-.22-1.035 2.638-1.154 2.96-1.696 0 .042-6.114-2.926-5.563-3.655 1.128-1.459 1.119.169.39-2.095-.204-.619-2.926-4.435-2.731-4.613-1.322 1.196-.576 3.918-2.883 3.926-2.544 0-2.298-2.917-2.298-4.587 0-.738-6.317-2.621-6.784-2.604-3.57.094-2.103.322-2.323 3.155-.043.483-.569 2.493-.518 2.781.424 2.197 2.239 2.9 1.128 5.716-.339.848-2.366 1.094-2.544 1.594-.195.67.789 1.348.636 2.145-.059.323.331 3.35.127 3.257-1.348-.636-.754.619-2.264-.73-1.696-1.517-.517-3.714-1.509-4.867-.39-.466-5.317-2.332-6.411-2.832a6.835 6.835 0 00-4.749-.747c.433-.067-.407-2.544-.594-2.823-1.068-1.815-2.221.203-1.577-3.392.161-.899 4.181-5.216 4.24-5.088 0-.179-3.29-1.408-3.265-1.467.458-1.094 3.248 1.95 4.011-.348-.347 1.06 4.419-1.035 3.231-1.891-.5-.356-3.298 0-3.129-1.315-.11.848 5.996 1.188 3.57-.975-.085-.076 2.222 0 2.688 0 .323 0-.848-1.119-.771-1.229.347-.348 1.569 1.696 3.171-.085 1.238-1.382-.644-1.527-.72-2.866 0-.153 1.908-.67 1.272-1.629-.484-.729-3.019-1.602-3.859-1.331-.585.187.212 3.036-1.374 3.96a2.02 2.02 0 01-.475-.738c-.669.043.603 2.477-.254 2.078-.856-.399-.933-2.128-1.068-2.247-.34-.297-.789-1.391-1.357-1.9-.568-.508-1.111 1.891-1.332 1.934-.848.152.111-2.078.17-2.18.39-.729-2.06-.491-2.018-.449-.78-.678.534-1.052.67-1.264-.17.272-1.883-2.789-1.883-2.773-1.128-2.544-.364 0-.653-2.891.136 1.348 5.241-2.247 3.468-2.833-1.772-.585-4.375-.78-4.774.653-.22.848-.093 4.071-.424 5.368-.11.416-1.5 1.086-1.017 2.739.195.645 3.909 1.484 2.162 2.9a.687.687 0 01.72-.636c.052.111-1.899 3.681-1.695 3.528a26.517 26.517 0 01-2.239-2.289c-.102-.187 2.485-.586 2.62-.713 1.001-.975-1.467-.958-1.467-1.102 0-.28 1.323-.11.848-.475a2.931 2.931 0 00-2.24-.545 2.93 2.93 0 00-1.94 1.249c-.458.61 3.638 2.171-1.29 2.807-2.246.288-3.162-.848-5.087-1.298-.568-.135-.543-.729-1.569-.848-.356 0-2.798 1.035-2.052 1.374.543.237 2.544-1.136 2.875-.789-1.323-1.45-1.57 4.088-2.426 3.638-.381-.203-.144-1.535-1.306-1.916-1.594-.534-5.206 1.111-6.393-.195-.577-.628 1.517-.78 1.356-1.154-.585-1.356-3.909-1.45-5.088-1.738-1.178-.288-2.077-.958-3.154-1.077-1.298-.136-1.79.789-2.994.789-.178 0 .246-1.611-.313-1.696a6.619 6.619 0 01-1.46 1.696c-1.152-.085-1-2.917-2.373-2.705.932-.145-1.96 2.052-1.764 1.942a38.461 38.461 0 01-3.808 2.128c-.72-.042 4.062-2.976 4.054-2.866.05-.577-4.139 1.195-4.605 1.45-.466.254 0-.738-.848-.45-2.001.721-.577 1.34-1.06 1.866.195-.203-12.372-2.959-13.203-3.027-1.23-.102-8.87-.967-9.328-1.493-.848-.916-3.028.06-4.028 1.153-.806.848-6.784 2.197-7.047 3.494-.61 2.722 5.74 3.231 6.224 4.715 0 .119-7.149-.271-7.937 1.611.271-.644 2.001 2.061 2.18 2.129.847.305 5.189-.628 5.206-.602 1.221 1.212-1.433 2.857-2.086 3.468-.789.729-.848-.449-1.798.789a15.415 15.415 0 01-1.79 1.45c.204-.187 1.442 2.586 1.485 2.62.755.662 3.07.653 2.798.382.73.729-.068 2.255.61 2.612.459.245 2.044.05 2.918.407-.78-.314 2.4-1.383 2.213-.848-.432 1.305-5.648 7.632-6.41 6.784.915 1.009 10.32-5.343 10.32-6.844a2.562 2.562 0 00-.849-.475c-.212-.534 5.088-4.944 4.902-3.231 0-.178-3.163 2.417-2.434 3.087.22.195 3.723-1.017 4.24-1.221.517-.203-1.272-1.789 0-2.018.433-.077 2.103.907 2.17.848a.586.586 0 00-.745.466c.16.509 7.48.187 7.937.594-.22-.195 4.698 4.053 4.647 2.866a1.994 1.994 0 01-.153-1.357c2.34 1.696-1.093 2.171-1.085 2.069 0 .119 1.78 2.629 1.696 2.655.33-.178-.458-2.273.076-2.078.12.266.17.558.144.848.594.763.696-1.696.62-1.526.127-.331.186 3.239-.187 3.188-.543-.076 3.112-.314 2.035.212.34-.17-1.331-1.162-.407-1.238 1.425-.119.305 1.204-.644 1.289-.007.696.05 1.392.17 2.078.288.212 1.593-1.018 2.255-.899.661.118.543 2.544.907 3.052.263.365 2.095 2.205 2.332 2.544a19.405 19.405 0 003.85 3.104c-.127-.102 4.817 4.071 2.095 4.071-.102 0-2.951-7.675-6.114-5.445.661-.466 4.24 4.681 4.486 5.343 1.322 3.799-.849 8.217.627 12.364 1.01 2.84 3.672 4.638 5.47 6.589a24.661 24.661 0 012.857 4.324c1.264 2.137 1.544 2.68 1.29 3.901 0 .06 5.698 6.021 5.477 6.182.543-.39-5.647-11.567-5.47-11.592 2.24-.229 2.435 3.273 2.85 3.918 1.145 1.772 3.231 3.392 4.486 5.037 2.146 2.756 2.434 5.648 4.35 7.632 1.272 1.314 4.24 2.459 5.936 2.993 2.239.713 4.605.043 6.411 1.807.848.788 2.129.848 2.705 1.399 1.586 1.458 2.239.729 3.723 2.255 1.001 1.026 1.289 1.968 1.866 2.544.949.933 2.544 2.706 3.977 2.807 1.433.102.975-1.577 1.696-1.407 3.188.754 2.612 5.028 1.323 7.632-1.391 2.84-3.172 3.332-1.603 6.198.11.204-1.552 2.901-1.391 3.74.305 1.594 3.867 6.318 4.698 7.971 1.594 3.138 3.63 3.46 5.885 6.021 2.061 2.341 1.408 4.24 1.052 7.429-.518 4.672-.653 9.268-1.645 13.797-.399 1.806-3.825 11.21-2.544 13.016.585.848.848-2.366 1.39-2.544.543-.178-.347 7.013-.915 6.615-.297-.212.33-2.332-.45-1.985.712-.313-1.459 2.994-1.467 3.028.085-.933 1.111 1.136 1.153 1.467.068.577 1.255-.382 1.196.458.085-1.255-3.562 1.441-1.84 1.178.285-.166.547-.368.78-.602.254-.05-1.798 2.146-.424 2.366.271.043.416-1.407.797-1.026.806.806-1.535 2.544-.984 3.206.111.135 1.255-.518 1.476-.06.068.145-.772.797-.636.848.458.17 1.501-.449 1.696.212.195.662-2.035.051-1.272 1.137.288.407 2.103-1.315 2.442-.187-.093-.322-2.035 1.018-2.103 1.102a21.471 21.471 0 012.392-.551c.169.373-2.655 1.467-2.731 1.145.085.365 1.696 1.374 1.967 1.119.441-.449-.585-.229-.22-.703.254-.34 2.425-1.544 2.544-1.866a1.241 1.241 0 00-.602 1.119c.324.059.655.076.983.051-.271-.305-.653 1.425-.551 1.374a1.374 1.374 0 01-.449-.975c-.484-.212-.238 1.017-.305.967a.656.656 0 00-.789-.441c.398-.56-.492 1.696-.492.924 0-.433 1.374 1.263 1.34 1.229.186-.277.316-.588.381-.915a25.35 25.35 0 002.282 1.577c.424.127-.306-.992-.06-.958a14.268 14.268 0 003.29-.679c-1.526-.559-3.392-3.273-3.68-3.392-.229-.059-1.094.127-.967-.458.128-.585.942.204 1.154 0 .212-.203-.959-2.009-.713-2.544.382-.848 1.052-1.085 1.484-1.874.577-1.051 2.002-1.857 2.086-3.027.077-.924-1.331-.941-1.263-1.204.263-1.018.916-3.511 1.967-4.834.399-.509 1.756-1.84 1.747-1.848-.331-.28-2.925-.051-1.56-2.112-.433.645 3.095-.56 2.917-.458.483-.28-.068-1.908.178-2.171 1.204-1.28 5.639.577 6.14-2.841.11-.754-1.968-3.392-2.01-3.341.704-.737 3.985.848 5.792-1.068.449-.475 2.696-4.452 2.688-4.333a8.168 8.168 0 01-.848 1.653c0-.788 2.637-2.968 2.976-3.884.492-1.306-.101-3.01.577-4.24 1.365-2.391 4.427-1.933 6.123-3.002 2.179-1.382 2.806-3.392 3.476-5.936.416-1.577 0-5.596.848-6.86-.118.254 8.497-9.226 3.112-8.921z" stroke="gray" stroke-miterlimit="10"/><path d="M118.72 187.043c1.246-1.696-12.847-4.732-11.084-2.162-.848-1.23 5.623.415 5.936.585 1.052.602 3.613 3.638 5.148 1.577zm-4.494 2.315c.195.365 2.018.848 2.205.424.186-.424-2.442-.881-2.205-.424zm12.337.102c.424.738 1.696.297 1.772 0 .195-.526-2.204-.729-1.772 0zm6.861 90.787c.576.314 1.772-1.263 1.246-1.365-.525-.102-1.797 1.068-1.246 1.365zm1.408.11c.382.204 1.959-.517 1.772-.899-.347-.788-2.128.687-1.772.899zm-34.718-68.951c-.483.789.475 1.561.67 1.213.195-.348-.186-2.001-.67-1.213zm43.088-100.572c.102-1.9-2.807-.976-3.24-.848-.432.127 3.104 3.171 3.24.848z" stroke="gray" stroke-miterlimit="10"/><path d="M175.799 109.536c-.348.212-4.63-.458-4.656-.381.111-.289 1.552-1.942 1.366-2.01.941.356 3.646 3.57 3.773.593.102-1.738-2.442-1.738-2.815-3.18-.11-.398 3.307 1.103 2.62-1.017-.381-1.204-3.739.848-3.604-.441-.051.449 1.162-1.577.95-1.348 1.069-1.179 5.936 2.883 2.79-1.196-.127-.161 2.824-.11 2.968-.712.144-.603-2.934-.518-2.239-1.697.848-1.441 3.078.653 1.696-2.298.051.102-3.553-1.127-3.002-1.696.552-.568 4.783 0 4.622-.653-.407-1.543-2.502.085-2.671-1.238-.094-.686 1.272 0 1.475-.356.763-1.204-3.307-.229-3.163-.119-1.102-.848 4.512-6.08 4.673-5.86-1.026-1.373-1.968.917-2.697.196-.729-.72 4.062-1.323 4.189-1.408.407-.254-2.544-.848-2.688-.653.517-.848 7.428-.771 7.428-2.68 0-2.543-6.555-.101-7.284.136-.576.178-1.408-.568-1.806-.415-1.314.5-2.544 2.637-3.935 2.84 1.382-.203 2.951-3.544.696-3.943-.357-.059-4.173 2.756-4.41 1.908-.187-.67 2.298-.983 2.239-1.543-.119-1.187-8.107.67-8.124.492-.119-1.62 11.126-.967 12.253-2.493.628-.848-14.297-3.257-15.645-2.909-.339.085-2.366.806-2.595.848a10.284 10.284 0 00-1.408-.076c-2.544.288-5.011.118-7.547.602-.314.06 1.102 1.009 1.086 1.094-.017.084-2.222.229-1.917.627-.068-.085 3.121 2.264 2.9 2.315-1.789.382-5.088-3.706-6.869-2.383-.441.323 1.315 1.4 1.315 1.645 0 .984-3.596-1.119-3.494-1.119-.263 0-.161 2.146-.67 2.468 1.552-.967-1.916-2.332-2.459-2.383a2.902 2.902 0 00-2.858 1.645c-.805.28-1.993-.695-3.036-.271-.746.305.662 1.56-.373 2.128-.28.153-7.53.33-6.563 2.544.729 1.696 4.647-.076 1.17 2.765-.95.771-3.697.458-4.893 1.272-5.554 3.79 5.139 1.289 5.029 3.392 0 .237-5.674.246-5.563.771.144.772 3.968 2.544 4.986 2.638 2.061.195 4.036-1.349 6.784 0 2.408 1.161 4.842 3.544 5.563 6.232.848 3.147-1.153 3.545 2.145 3.545a18.655 18.655 0 002.816 3.027c-.119.094-3.681-1.407-3.681-.5 0 2.12 4.97.568 3.647 4.35-.204.56-1.773-.237-2.239.908a5.673 5.673 0 00-.56 2.425c-.076 1.526 2.214 6.784 3.901 9.124 1.357 1.858 2.163 2.146 4.079 3.011 3.002 1.348 2.307 1.518 4.003-.992.653-.984-.357-1.934-.094-2.697.136-.398 1.433-.39 1.628-1.246.246-1.103.094-2.926.238-3.392.362-.042.73.008 1.068.144.145-.085 2.01-2.595 2.231-2.595a.792.792 0 01.144 1.009c.364 1.145 4.647-2.671 4.732-2.739 1.636-1.187 1.399-1.264 2.857-1.908 3.231-1.382 6.869-2.595 9.498-4.147zM66.466 96.418c.932-.51.932 0 1.636-.738.199.358.457.679.763.95 1.111 0 1.56-2.392 2.256-2.544.696-.153.212 2.12 1.815.568.61-.585.475-1.128 1.068-1.781.161-.178-3.392-.06-3.867.102-1.348.475-3.722 3.477-3.671 3.443zm7.106-.95c-1.603.127.848 1.17.797.916a3.55 3.55 0 00-1.857.542c-.288.407 1.603.255 1.4.331a3.537 3.537 0 00-1.926.687c1.026 1.501 2.773.076 3.587-.433-.424.263 2.494.984 2.689.687-.28.416-3.02.798-2.977 1.239.153 1.424 5.47-.467 6.258-.849 2.638-1.153 3.392-.22 2.171-2.543.11.186-2.85-1.858-3.316-1.612-1.373.713.849 2.137.518 2.638-.789 1.297-3.452-1.459-4.08-1.62-1.619-.34-1.924-.085-3.264.017zm17.953 11.312c1.941 1.459 4.24-3.994 2.984-4.062a.917.917 0 00-.228 1.145c.135-.288-1.595-.848-1.56-.848-.374-.585 2.467-1.119.627-2.366-1.366-.933-1.204.797-1.179.789.237-.119-4.087-.501-2.714.738a8.98 8.98 0 001.416.271c1.629 1.416-2.832.653-2.374.568-1.297.271 2.629 3.468 3.028 3.765zm-27.214-.941c.546.59 1.058 1.21 1.535 1.857 1.17 0 2.4-1.696 2.977-2.137 1.51-1.128 3.655-2.23 5.181-3.494.568-.466-6.962-2.629-7.946-2.323-3.154.992-.407.314-1.433 2.052-.322.534-2.018 3.333-1.806 3.595.463.248.97.4 1.492.45v0zm5.759-8.633c.848.102 1.696-.737 1.696-1.212s-2.129 1.161-1.696 1.212zm50.922 10.49a.917.917 0 00.916-.95c.203.696-3.621-1.306-3.969-1.424-.848-.289-.314-1.069-1.696-1.383-.941-.212-2.383 1.188-2.34 1.196-1.272-.449-.738.093-2.18.093-1.06 0 .73-5.808-3.875-3.027-2.782 1.696-.475 2.544-.348 4.342 0 .297-2.077-.619-1.993-1.968.077-1.221 1.603-2.315 1.603-3.086 0-1.425-5.012 1.696-5.257 2.832-.331 1.492 1.823 4.477 2.705 3.307-.229.297-2.349-.28-2.29.28.305 3.061 11.338 1.153 11.575 1.772a1.267 1.267 0 01-.559-.848c.152-.508 3.883 2.315 3.909 2.544a3.07 3.07 0 00-1.06 1.001c.712.594 1.501-.602 2.688.627 1.34 1.391 1.314 1.103 1.637 3.214.068.441 4.053-.848 3.332.993-.72 1.84-1.78-.475-2.306-.306-.526.17-1.891.221-2.621.441.056.472.206.928.441 1.34-1.127.551-2.959.059-3.824.848-3.18 2.722 3.392 1.069 4.299 1.357.908.288 6.403 7.004 7.827 5.088.356-.492-2.416-3.494-2.934-3.392 2.103-.611 5.19 2.866 4.088-.653-.492-1.569-4.24-2.782-2.595-4.74.678-.848 3.51 2.654 3.985 2.637 0 0 2.782-2.917 2.782-2.9 0-1.951-7.683-3.002-7.437-4.893a4.099 4.099 0 011.484-.365 2.46 2.46 0 00-1.247-.687c-.127-1.162 1.23-1.102-.721-1.102 1.417 0-1.958-1.535-2.086-1.586-.398-.127-1.933-.602-1.933-.602zM55.01 139.835c-.891.518 1.11 2.968 1.645 2.604.16-.119-.34-3.367-1.646-2.604zm31.859-41.577c.33-.424-.721-1.315-1.01-.577-.288.738.637 1.01 1.01.577zm25.914 28.213c.34-.06 1.01-1.374.145-1.323-.865.051-.662 1.399-.145 1.323z" stroke="gray" stroke-miterlimit="10"/><path d="M117.583 115.26c2.621-.483-2.544-2.374-1.696-1.645.569.466-1.458 2.222 1.696 1.645zm-9.04 10.049c.772.526 1.917-.89 1.823-1.314-.093-.424-2.73.661-1.823 1.314zm-9.201-26.941c.441 1.357 11.406 1.916 12.678.992 5.088-3.672-10.744-1.832-10.532-3.027.243-.32.528-.605.848-.848.39-.517-8.608-2.332-7.92-1.264 1.89 2.883 3.663.161 4.926 4.147zM88.31 110.155c.255-.331 1.485.679 1.536-.051 0-.517-3.655-3.12-3.977-3.951a19.655 19.655 0 01-.246-3.392c.432-.39.39-.848-.144-1.23a1.98 1.98 0 00-2.112.526c.504.356.955.781 1.34 1.263 0-.246-2.4-1.111-2.637-.636-.34.679 1.094 3.138.636 3.392-.085 0-3.24-3.544-3.392-2.739.335.286.621.624.848 1.001 0 .127-1.747.051-1.654.297-1.263-3.341-2.307.661-3.451-.416-.12-.119 1.967-1.696-.492-1.696-.95 0-3.392 1.365-3.706 2.163-1.425 3.392 1.772.898 3.112 1.933.068.051-2.832.806-2.832 1.204 0 1.781 6.86-.178 6.86 1.323 0 .365-6.182 0-5.936 1.001.636 2.764 8.48 2.213 10.074 1.993a12.066 12.066 0 012.544-.348c.535 0 4.927 1.509 4.402-.28-.424-1.399-1.434.424-1.781-.526a3.884 3.884 0 011.009-.831v0zm41.273 36.21c.093.415 2.883 1.696 2.976 1.102.093-.593-3.061-1.467-2.976-1.102zM101.76 92.152c-.848-.475-1.95.526-1.052.899.797.314 1.95-.424 1.052-.899zm-7.455-.678c5.647 0-1.018-3.146-1.39-2.544-.374.602.728 2.544 1.39 2.544zm.577-5.216c.05 0 4.452 2.061 4.24 1.366.118.356-2.027.848-1.917 1 1.408 1.552 3.621 2.544 5.614 2.002.136 0 4.147-3.613 4.028-3.002-.161.848-2.959-2.832-3.112-2.951-.153-.119-6.097-3.24-6.674-2.799a.848.848 0 00.712.62c0 .33-1.458.067-1.594.339.272.214.534.435.789.661-.288.56-1.968-.271-1.908.848.355.428.805.767 1.314.992.034.594-3.18 0-1.492.924zm16.706 15.315c-1.213 2.867 4.893 2.205 4.893 1.578 0-.959-4.545-2.392-4.893-1.578zm-13.39-9.836c-.101-.323-3.74.16-3.171.627.958.789 3.265-.314 3.171-.627zm-22.133-.06c.246-.627-1.585-.526-1.433-.314.33.475 1.196.95 1.433.314zm21.073 5.741c-.772-.636-3.053.89-2.74 1.153 1.247 1.06 5.564 1.17 2.74-1.153zm-11.084-4.214c.382-.526-1.543-2.205-1.636-1.416-.094.788 1.23 1.975 1.636 1.416zm4.224.924c-1.145-.483.483 1.696.305 1.696a4.24 4.24 0 00-1.823-.848c-.407.33.594 1.331.263 1.493-.517.245-1.78-2.18-2.493-2.222-1.526-.085.543 2.17.61 2.213 1.281.772 2.29.178 3.57.526-.177-.051 1.417 4.062 2.918.424 1.094-2.688-2.044-2.756-3.35-3.282zm-10.227-2.714c.848-.135-3.392-1.144-3.392.475-.017 2.748 3.4-.475 3.392-.475zm-2.349-1c.39.178 3.12.144 3.12-.416 0-2.043-4.528.22-4.418.314a4.74 4.74 0 001.298.102v0zm14.586-4.104c.339-.628-2.019-1.128-1.433-.577.33.314 1.102 1.212 1.433.576zm-6.572 2.476c.772-.255 1.255 0 1.442.737-.094.23-1.781.162-1.697.314.085.153 9.235 3.757 4.563-.848a4.86 4.86 0 00-2.213-1.196c-4.13-.508-1.756.747-2.095.993zm26.305 33.631c.093-.551-4.69-3.824-4.944-3.79-.458.059-2.688 3.052-2.4 4.002.288.95 7.386-.466 7.344-.212z" stroke="gray" stroke-miterlimit="10"/><path d="M100.691 81.052c1.696-1.221.297.509.314.534.344.015.686.07 1.018.161-1.917 2.247 3.578 1.883 3.553 1.459.246 3.493 7.004-1.17 7.818-.594 1.561 1.111-4.104 2.205-3.968 2.392 0 0 1.823 1.543 1.594 1.551-1.077.085-6.708-3.917-5.758-.356.22.848 4.647 2.544 4.647 3.324 0 0-5.58-1.696-5.716.738-.084 1.51 3.079-.271 3.113-.178-.492-1.094.491 3.392.491 2.544 0 1.018-4.324-2.646-4.146-.627.395.363.82.692 1.272.983 0 .348-3.715.653-2.841 1.535 1.001 1.026 12.287 1.34 12.856 0 .568-1.34-4.24-1-4.452-1.357.669 1.052 4.24-1.908 4.519-2.043 1.798-.993 2.544.466 3.494-2.34.28-.849-3.112-.849-3.078-.849 1.976-1.4 4.579-.848 6.377-1.696 1.094-.543 7.573-3.892 7.632-4.384.059-.492-3.036-.127-3.214-.204 1.492.653 6.784-2.866 6.869-2.849-.424-.136-6.564-2.222-6.666-.644a2.34 2.34 0 01.993-.848c-1.205.474-7.234.152-8.048.195-2.764.144-5.436-.365-7.869.305-.492.136-11.805 3.85-12.017 3.392a1.068 1.068 0 001.213-.144v0zm38.381 63.108a5.936 5.936 0 00-2.307 2.663c-.119.254-2.23 2.374-1.374 2.883 1.942 1.136 3.732-1.696 3.935.848-.068-.848 2.815.314 2.943.068-.051.11-.848-2.205-.467-2.035.518.237-3.824-2.765-3.765-2.265a4.736 4.736 0 011.035-2.162v0zm-121.51-3.392c.577-.263.848-.585.577-.899-.272-.314-1.018 1.119-.577.899zm4.078-2.357c-.67-.263-1.348.805-1.44.797-.29-.051 2.085-.535 1.44-.797zm11.33-5.843c-1.102 1.391-2.01 4.053.34 1.696.347-.356.856-3.197-.34-1.696zm-14.45-3.443c-.449-.271-.77-.144-.957.365a1.486 1.486 0 001.509.5c1.628-.594-.56-.958-.551-.865zm185.001 32.131c-.077-.594-1.179.178-.942.347.484.365 1.026.246.942-.347zm24.37 5.961c0-.39-3.103 0-3.035 0-.399-.034 3.129 1.018 3.035 0zm8.116.441c.244-.353.51-.69.797-1.009a9.961 9.961 0 00-2.459.848c-.424.814 1.755.721 1.662.161zm-52.653-46.191c3.392-.186.203-5.367-1.425-4.418-.373.212-2.764 1.544-3.197 1.417a.85.85 0 00-.763-.586c-2.128 2.544.076-.729-2.858-.729-.61 0 .314.848.153.848-.594-.068-1.493-.246-1.637.848-.068.484 2.443.373 2.349.28-.093-.093-.246.899-.161.848-.068.042-2.01.085-1.84.432.059.119 1.772.179 2.069.526.543.628-.585 1.408-.704 1.281 2.052 2.272 5.818-.619 8.014-.747zm6.352 22.176c2.849 0 3.629-2.052 3.349-4.24-.093-.747 1.433-.848-.28-1.79a6.688 6.688 0 00-2.238.475c-.051 1.527.11.178-1.518 1.069-.051.051-.017 4.486.687 4.486zm8.726-14.247c.271-.296.593-1.441.178-1.314-.416.127-.288 1.442-.178 1.314zm-5.462 2.756c-.212-.229-1.043 1.06-.721 1.052.322-.009.924-.823.721-1.052z" stroke="gray" stroke-miterlimit="10"/><path d="M192.699 133.73c1.043-.916.06 3.519.06 2.951 0-.797 1.373.39 1.221.415.3-.233.517-.557.619-.924.483.076-.314 1.899-.306 2.018.094.712 1.832-.449 1.934-.263 1.145 1.993-.916 2.824-.848 4.138a1.523 1.523 0 00-1.187 1.247c.876.212 1.77.343 2.671.39.059.322-3.774 1.111-2.832 2.366 0 0 6.885-1.509 7.292-1.925.407-.415-.703-.153-.67-.449.187-1.383 1.272-.738.67-2.248a3.931 3.931 0 01-1.339-1.051c-.772-1.306-1.527-4.113-3.392-3.977 0 0 1.204-2.002 1.077-2.315-.526-1.34-1.518.186-2.265-.713-.254-.296 1.535-1.492 1.009-1.984-.364-.407-3.637 2.256-3.714 2.324zm19.615 4.333c-.204-.051 2.713-.789 1.322-1.739-1.187-.814-1.441 1.713-1.322 1.739zm7.758-4.927c-.61 0-.848 1.323-.737 1.543.11.221 1.34-1.594.737-1.543zm3.394-.39a3.11 3.11 0 001.119-.806c.78-.865-2.324.874-1.119.806zm.906-1.543c.127-.263-.924-.145-.687.093a.453.453 0 00.55.047.458.458 0 00.137-.14v0zm-4.698-45.657c.907.78 2.679-.119 3.807.585-.042 0-2.264.848-2.255.848.551 1.425 8.48.696 7.945-1.5-.068-.263-5.172-.984-4.969-1.052a.952.952 0 00-.186 1.153c-.424.314-2.477-1.374-2.935-1.314-.285.273-.52.595-.695.95l-.848-.636c-.907-.009 0 .856.136.966zm-6.649 2.137c-1.628-.381.848 2.544 1.238 2.74.755.432 1.357-1.4 1.9-1.612.543-.212-.229 1 .297.967a4.17 4.17 0 011.153-.492c.466.73-3.392 2.137-2.875 2.272.975.246 2.027-.39 3.036-.144a15.92 15.92 0 00-2.976.95c-.094.95 1.696.907 2.137 1.077a.732.732 0 01-.526.45c-.246.33 1.348.491 1.603.339a24.673 24.673 0 001.696-2.544c.195-.246 1.738-3.944 2.696-2.426-.254-.407.39 3.223.043 3.155.407.085 4.07.704 3.926-1 .076.847-3.791-2.825-3.723-2.774-1.204-.983-3.002-1.144-3.858-1.356.5.118-.797-1.612-1.416-1.815-.899-.297.203 3.197.262 2.917.848-3.596-2.501-.772-2.476-.78a6.187 6.187 0 00-1-.848c.284-.164.589-.29.907-.373-.28.11-6.19.339-2.044 1.297zm-.982 2.129c.232.22.488.413.763.576-.356 0-.746-1.84-1.442-1.628a.918.918 0 00.679 1.052v0zm192.664 33.343a1.869 1.869 0 00-1.34.449c.212.263 3.324.993 3.324.289a3.024 3.024 0 00-1.984-.738zm-52.788 33.047c-.161-1.069-2.544 3.51-1.348 2.849-.212.119 1-.678.966-.5a9.322 9.322 0 00-.636-.848c0 .254 6.903.195 6.555-2.807.187 1.628-5.774-1.069-5.088-1.535.068-.06-.449 2.671-.449 2.841zm-12.771 14.772c.34.687.662-.958.848-.136 0 .119-.458 2.595.34 2.417.653-.144 1.831-2.502.848-2.926-.289-.093-2.901-1.094-2.036.645zm3.808-.28c.238-1.043 1.696.195 1.696-1.442 0-.848-1.696 0-1.781.153-.279.517-.152 2.307.085 1.289z" stroke="gray" stroke-miterlimit="10"/><path d="M345.323 167.149s-5.274.238-4.867 2.086c.051.238 4.443-.415 4.757-.483-.983.229.942.695 1.17.678.747-.059.179-1.085.314-1.17.848-.517 3.392.458 4.24-.721.679-.924 2.222-7.284 1.026-7.971-1.501-.848-2.247 3.969-2.951 4.953-.568.78-3.527.992-3.689 2.628zm-27.231 21.785c.224-.453.416-.92.577-1.399-.127-.483-2.841-.119-2.29.925.06.127 1.62 2.247 1.713.474zm11.228-4.24c.525-.398 1.764-3.078 1.348-3.688-1.391-2.027-2.493 4.596-1.348 3.688zm-.992 7.327c-.738 2.442 7.149 5.707 5.521 7.581 2.62-3.01-3.011-4.24-3.587-5.614-.577-1.373 2.026-3.341 0-4.519-1.357-.806-1.9 2.45-1.934 2.552zm-1.373 7.649a6.763 6.763 0 00-1.374 1.967c-.136-.262 2.773-2.094 2.239-3.264a1.804 1.804 0 00-.865 1.297v0zm1.984-4.07c.094.492.323 1.509 1.026 1.263.704-.246-1.093-1.611-1.026-1.263zm4.511 4.214c-.255-.347-.89.297-.797.56.093.263 1.051-.246.797-.56zm1.06.594s-4.664 3.027-3.875 2.951c.788-.076 1.111-1.179 1.916-.611.806.568.314 2.4 1.857 2.4-1.153 0 1.23-2.468 1.12-2.035a2.604 2.604 0 00-1.018-2.705v0z" stroke="gray" stroke-miterlimit="10"/><path d="M330.669 197.389a1.17 1.17 0 00.059 1.62c2.01-.441-.704 1.526.848 1.891 1.332.322 1.425-4.02-.907-3.511zm32.317 20.174c0 1.391-3.57.526-3.621.95-.195 2.018 5.496.067 4.325-1.4-.39-.118-.627.026-.704.45zm1.442-.136c.958-.28-.746-1.492-.949-1.543.313.068.635 1.628.949 1.543zm-6.149 2.451c.848.059-2.756-3.002-3.587-3.477-1.865-1.06-5.486-2.705-7.352-2.595-.543 0-1.297 1.696-1.959 1.577-1.331-.245-.568-1.696-1.518-2.06-.848-.331-.848-1.238-2.281-1.026-.246.042-1.636 1.136-1.145 1.246.272.06 3.087 1.628 3.104 1.145 0 .221-1.696.212-1.882.238-.781.144 2.934 1.967 3.171 2.077 1.637.797 2.824.628 3.774 2.298.949 1.671-1.332 1.578-.95 2.332.704 1.382 5.877.161 6.428.17 1.509 0 1.484-.051 3.392.89-.051 0 4.638 2.341 4.138 1.51-.229-.331-4.274-4.376-3.333-4.325zm-71.8-19.818c-.695.085-.712 4.13.094 4.452 2.247.916 1.747-4.672-.094-4.452zm-34.012 25.89c0 .042-1.501 2.62-1.755 2.883-.679.678-2.46 1.094-2.994 1.696-1.475 1.696-.483 2.467-.738 4.978-.186 1.772-2.272 8.929 2.544 6.597 2.756-1.34 2.188-9.218 3.223-11.804.135-.339.848.763.848-.67s-.814-2.434-1.128-3.68zm4.697-29.307c.356.407 1.06-.068 1.102-.229.043-.161-1.509-.229-1.102.229zm114.608 26.474c.093.526.848.848 1.102.662.254-.187-1.204-1.204-1.102-.662zm-3.41-3.239c0 .136.738.95.908.848.169-.102-.865-1.094-.908-.848zm3.596 2.111c.263-.186-1.484-1.238-1.509-.898-.026.339 1.246 1.085 1.509.898zm-5.623-3.578c-.059.314.967 1.984 1.349 1.696.678-.475-1.306-2.01-1.349-1.696zm6.565 3.528c-.246.576.712 1.577.847 1.602.136.026-.627-2.052-.847-1.602zm.838 2.34c0 .127.67.763.984.526.314-.238-1.069-.755-.984-.526zm-34.293 1.679c.238.212 1.434-.051 1.391-.365-.042-.313-1.755.051-1.391.365z" stroke="gray" stroke-miterlimit="10"/><path d="M364.878 246.2s-.576-3.477-.28-3.341c-2.043-.959-5.02-5.215-6.495-7.463-1.111-1.696-1.45-3.502-2.341-5.613-.458-1.094-1.407-.272-1.696-.984-.475-1.043 0-3.222-1.026-4.181-.78-.729-1.196 5.215-1.204 5.241-1.085 3.087-.441 3.138-3.222 2.154-.798-.288-3.197-1.518-3.392-2.544-.179-.891 1.916-2.392 1.636-2.951.212.424-5.037-1.493-5.147-1.442-.136.339 0 .602.407.789-1.442-1.696-3.816 4.342-3.104 4.24.339-.043-2.145-.39-1.458 0-1.781-1.035-1.51-2.061-3.638-.534-1.383 1-.891 2.34-1.696 3.23-.212.238-.356-1.212-.687-.992-1.145.772-.255 1.764-1.289 2.612-1.281 1.043-1.925 1.111-3.333 1.815-1.848.907-3.163 1.187-4.765 2.696a.782.782 0 01-.119-.737c0 .381-.458 1.577-.509 2.213-.051.636.611 3.095.432 3.468a1.272 1.272 0 01-.644-.602c.13.273.235.557.314.848a26.045 26.045 0 01-.772-.627c-.305.763 2.001 4.825 2.222 5.732.11.467.085 4.859-.11 4.452 1.475 3.028 3.612.958 6.054.238a63.813 63.813 0 005.224-1.739c1.492-.559 4.664-1.696 6.292-1.424 1.001.161 6.004 4.078 4.859 4.596.348-.153 2.408-2.714 2.544-2.595.645.602-1.043 2.23-1.128 2.603-.305 1.467 1.696-1.153 1.154-.729.72-.577.381 1.789.313 1.603-.067-.187 2.366 3.129 2.595 3.315 1.374 1.188 4.791.085 4.758.068.05.263.05.534 0 .797-.314-.39 1.136.484 1.483.848-.703-.67 4.02-2.145 3.884-1.993.721-.848 1.137-4.57 1.696-5.783.348-.992 1.773-6.945 2.188-7.284z" stroke="gray" stroke-miterlimit="10"/><path d="M346.237 256.749c.263.263 1.145.186 1.289-.187.144-.373-1.543-.051-1.289.187zm10.848 7.318a8.7 8.7 0 01-1.849-.585c.323-.093.06 4.969 2.765 3.545 1.365-.755 1.891-3.299-.916-2.96zm23.225 8.836c.17.051.721-.101.407-.525-.314-.424-.814.407-.407.525zm10.846-13.313c-.644 1.178-2.052-1.773-2.179-1.764a.617.617 0 000 .661c.11-.169-2.129-3.214-2.595-3.214-.051 0 1.611 3.291 1.755 3.698.501 1.458-1.144 1.399-1.085 2.196 0-.059 1.196 3.392 1.128 3.316 1.374 2.578 4.299-7.318 2.976-4.893zm-3.909 4.24c-1.348-1.052-9.455 6.19-7.004 7.835 2.45 1.645 8.14-6.919 7.004-7.835zm5.326-31.478c.263.11 1.128-.204 1.128-.653 0-.449-1.526.526-1.128.653zm-1.484 1.425c.407.424 1.221.39 1.247-.365.025-.755-1.612-.009-1.247.365zM251.982 84.452a1.756 1.756 0 00-1.017.636c.449.984 4.596-.992 4.613-1.272.068-1.306-3.35.263-3.596.636zm5.988.56c0-.56-1.696.06-1.34.178.356.119 1.34.382 1.34-.178zm-7.522-.84a4.412 4.412 0 011.824-.39c.212-.576-3.698 0-3.579.323a1.178 1.178 0 001.755.067v0zm1.637 28.035c.933.942 1.501-.424 1.985-.627.661-.263-3.706-1.12-1.985.627zm6.878-10.6a40.002 40.002 0 00-3.647 4.071c0 .102 1.849 1.645 1.696 1.696-.161-.331-.101-.577.178-.73-.169 0 4.631 4.02 4.843 1.696.059-.619-2.112-1.95-2.205-2.815-.094-.865.848-1.755 1.212-2.544a13.22 13.22 0 012.18-2.875c1.424-1.314 11.753-5.647 11.295-6.037-1.102-.942-10.312 2.069-11.804 3.002-.806.56-3.723 4.536-3.748 4.536zm101.013-2.204a2.899 2.899 0 002.595-.569c.22-2.416-10.439 0-2.595.569zm-8.192 1.221c0-.526-1.696.195-1.017.458.381.144 1.017.067 1.017-.458zm-45.401-9.396c.644.398 6.394-.56 6.589-1.696.195-1.136-3.333-1.459-3.223-.577-.636-5.003-2.535 2.79-3.366 2.273zm-4.962-4.953a3.034 3.034 0 00-.737 1.052c1.611 1.543 5.537 2.73 5.876 0 .289-2.315-5.139-1.679-5.139-1.052zm-1.696-.983c1.043.483-.915.534-1.034.602-.56.28 2.077.127 2.544-.068.466-.195 3.968-1.221 3.324-2.01-2.586-3.256-5.334 1.247-4.834 1.476zm20.479 14.704c-.738 1.62 1.297.484 1.314.212a.841.841 0 00-.605-.424.848.848 0 00-.709.212v0zm-61.496-16.281c.517.576 3.638.636 3.774-.382.042-.348-2.595-.848-2.756-.789.449-.067-.738 1.476-1.018 1.17zm40.187-.908c.127-.526-1.993-.297-1.442.204.195.178 1.314.322 1.442-.204zm95.705 25.398c.144.11 2.968-.085 2.408-.746-1.323-1.586-4.155.669-3.943.78a30.03 30.03 0 011.535-.034zm-46.92-9.752a5.087 5.087 0 003.494.704c.848-.161 3.061-1.467 2.221-1.764.399.144 1.569 2.815 2.256.746.577-1.696-1.052-1.306-2.544-1.79-.127-.042-2.756-.11-2.773-.11.399-.076-5.139.865-2.654 2.214zm6.666 4.486c1.696-.407-4.393-2.442-3.197-.56.382.611 2.629.704 3.197.56z" stroke="gray" stroke-miterlimit="10"/><path d="M402.885 119.237l1.213.28c.314 0-.399-.415-.305-.475-.365.229 2.145-.636 1.568-.848.043 0-4.918-2.951-4.986-1.925.077-1.145.5 1.849.331 1.298-.916-3.028-7.106-6.343-10.575-7.09-1.925-.415-5.206-.347-6.377.195.094-.05.789 1.484-.161 2.07-.441.271-2.544-1.578-2.052-1.807.492-.229 1.111.806 1.238-.178.093-.797-4.062.323-4.664.407a22.765 22.765 0 01-3.019-.229c-1.314-.127-.61 1.035-1.153 1.298.466-.221-1.696-2.086-1.696-2.069-1.891-1.603-1.62-1.9-5.139-2.171-1.077-.085-6.343 0-6.877-1.603-.153-.475 1.603.093 1.136-.687-1.034-1.696-5.232.246-5.283.424.296-.172.579-.365.848-.576a4.902 4.902 0 00-1.212-.407c-.365-.594 1.696 0 1.696-.314.305-1.815-8.76-.746-7.87.492a.948.948 0 00.848 0c-.577-.323.102 2.196.042 1.433 0 .144-2.06-.238-2.399 0 .175.177.386.316.619.407 0 0-5.724-1.086-6.114-1.179-.39-.093-1.043 2.391-1.908 2.341-1.289-.077-2.273-3.147-2.926-3.104.36.177.761.256 1.162.229 1.636-.958-4.079-4.35-5.3-4.096-.891.187-1.077 2.095-1.399 2.145-.484.085-5.088-.11-5.216-.644-.084-.288.619-.645.323-.721-2.375-.619-4.24.492-5.716.636-.39 0 .076-1.382-.5-1.484-.28-.051-4.147 0-3.799.433.212.076.432.135.653.195.059.508-4.842 1.289-4.944 1.56 1.051-2.705 8.98-3.392 8.336-6.25-.195-.848.33-1.552-1.425-2.391-2.239-1.052-3.926.627-5.936.127.214-.398.476-.768.78-1.102 0 .22-2.807-.543-3.154-.399.237-.102 1.933-.382 1.56-.967-1.281-1.95-4.24.535-5.309 1.315.552-.399-2.06 3.061-2.153 1.433.214.223.45.425.703.602.119-.373-3.002.322-3.163.263.094-.23.195-.45.306-.67-1.181.128-2.35.352-3.494.67.152.24.387.416.661.492-.051-.399-5.223 1.373-5.605 1.551-1.221.569-.594.518-1.119 1.222-.306 0-.619 0-.925-.06-.11.119 1.06.67 1.069.772a5.123 5.123 0 01-.848.059s1.289.764.704 1.298c-.348.314-2.358.144-2.934.263-8.039 1.696 0 2.238-1.561 4.367-.619.848-4.638-2.654-5.817-1.484-.102.102 1.297 1.077.984 1.162-.611.169-1.544-.721-1.985.127-.347.678 2.841 1.755 2.595 2.052 0 0-3.392-.704-3.392-.755-.67-.763 1.154-2.942-.271-3.392-1.425-.449-2.264 6.403-1.696 7.183 1.535 2.086 4.401.983 5.368 4.163.509 1.696-2.943-2.357-1.442-1.696-1.026-.44-.695-1.331-2.052-1.093-1.933.33-.093 1.433-.848 2.349-.848 1.076-1.993 2.637-3.172 2.9-.322.076-3.213-.077-2.951-.848-.042.101 3.816-.39 4.461-2.544.407-1.366-.271-2.46-.568-4.02-.085-.449.127-5.156.161-5.088-2.281-3.756-6.08.526-6.275 3.189.051-.738-.085 2.764-.255 2.323 0 0 4.122 2.646 1.696 3.036-1.696.288-8.48-5.699-10.574-4.503.551-.314 3.68 5.376.661 4.155-1.187-.483.043-.593-2.688-.347 0 0-4.367.729-4.028.458.339-.272.941-.552.848-1.23 0 .432-5.707 2.298-6.504 2.646-1.111.483-.848 2.544-2.9 1.178-2.053-1.365 1.026-1.305 1.28-1.602.924-1.111-3.765-2.315-3.595-1.611 0-.196 1.102 3.519.22 2.874 2.196 1.586-.348 1.433-.492 1.544-2.544 2.035-2.544-.162-3.044 3.476-.085.611-2.103-.619-2.417-.373-.415-.263-.848-.534-1.229-.805-.747.347-.848.797-.34 1.356 1.23-.695 1.628 2.672-.517.976-.526-.416-3.434-6.784-4.622-6.225.848-.407 12.89 5.326 9.201-1.28-.704-1.272-8.208-4.444-8.844-3.647a1.69 1.69 0 00.797-.279c-.102-.848-1.942 0-2.146-.195-.5-.552-1.696.686-2.06-.67.067.263 1.95-.246 2.001-.509.398-2.196-3.46-.238-2.985-.221-.382 0 .203-1.187.17-1.246-.781-1.501-1.442 1.272-1.875 1.272-.152 0 .102-1.315-.169-1.136a74.401 74.401 0 00-1.543 1.696c-.56.11 1.093-1.815 1.085-1.858-.161-1-1.874.916-1.866.916.535-.458-2.154 1.527-1.365 1.289-1.034.314.271-2.332.399-1.84.067.229-1.569.187-1.544.577.232.23.389.526.45.848a3.481 3.481 0 00-1.221-.043c.138.256.351.463.61.594a4.554 4.554 0 01-1.433-.492c.068 0 .458 1.467 0 1.187-.797-.526-.627-1.374-1.696-.89-.085 0-2.323 1.696-2.281 1.95.042.255 1.094-.22.924.67 0 0-1.891 0-1.823.085.076-.331.161-.653.263-.984a40.803 40.803 0 01-3.222 2.858c.848 0 2.739-2.086 3.637-1.255 0 0-.135.916-.152.924-2.544 1.018-3.257 5.148-5.605 6.174-.204.093.958.848.568 1.017-1.34.518-1.349 1.035-2.46 1.951-.084.068-.848-.975-.898-.322-.128 1.339-.789.305-1.459 1.305a.916.916 0 00.577.475c-.713-1.577-2.544 2.544-2.476 2.222-.408 2.493 1.221 1.696 1.348 2.095.364 1.28-1.484.678-1.399.61a7.314 7.314 0 00-.187 1.12c0 .466.992-.509 1.179 0 .127.339-.619.695-.721.848-1.255 1.916 4.24.432 3.587.576.848-.195 1.348-1.594 1.857-1.891.305-.186 2.68 7.225 2.917 7.31 1.12.424 3.452-2.977 3.825-3.087-.153.39-.348.484-.594.28.221-1.993 2.604-3.57 2.544-5.088 0-1.984-2.247-1.043-1.518-3.96.416-1.696 1.696-1.84 2.544-3.036.687-.975 1.815-3.791 3.112-4.24 6.03-1.993-1.399 5.037-1.585 5.393-.467.848-.128 4.291.288 4.707 1.696 1.696 4.876.441 6.716-.06a5.83 5.83 0 010 0 4.25 4.25 0 012.086.848c.407.475-5.173 1.086-4.927.967-3.578 1.696-.127 1.645-1.026 2.68-1.068 1.696-1.289.407-1.696.771-.144.128-2.798.323-1.814 2.307.958 2.154-.942 2.68-2.137 3.112.101 0-3.121.314-3.893.416-1.696.203-.797.441-1.611-.73-.348-.491-2.315 1.357-2.68 1.086a1.53 1.53 0 010-.806c-.466-.127-1.882 0-1.696-1.229 0-.221 1.23.653 1.332.11.186-1.026-.585-.348-.848-.848-.144-.229 1.323-2.705.559-3.545-.517-.568-1.373 1.366-1.373 1.366-.552.551-1.086-.433-1.171 1.865 0 .738 1.417 2.417 1.052 3.138-.271.551-3.35 1.119-3.926 1.492-1.034.892-2 1.858-2.892 2.892a15.164 15.164 0 01-1.959 1.95c-.848.399-2.697.17-2.976.331-.636.356.585 1.323 0 1.806-.585.484-2.265-1.017-2.655-.28-1.068 1.976.526.475 1.467 1.976 1.289 2.061 3.291 4.52.297 6.038-1.39.712-4.799-1.119-5.936-.509-2.128 1.162-.466 1.06-.924 3.036-.933 4.028-.848 5.716 2.468 6.784 2.315.755 4.765.28 6.69-2.298 1.527-2.052 2.443-5.614 4.775-7.064-.526.331 4.876-.61 4.426-.627 2.315.118.848-.212 2.849 1.322-.059-.05 7.632 7.005 5.462 7.005 1.229 0 .848-3.112.932-3.189a1.533 1.533 0 011.383.467c-.848-.255-8.48-8.48-4.749-8.277.509 0 4.52 4.563 5.8 5.283a1.761 1.761 0 010 0c-1.255-.737 3.35 7.013 3.35 5.207 0-1.594-2.078 3.952.636 2.459a3.62 3.62 0 00-.187-1.195c.244.067.502.067.746 0 .399-.492-.848-.424-.576-.679.271-.254 1.552.475 1.365-.559-.22-1.255-.899 0-1.365-.501.152.17-.195-2.544-.416-2.408.43.123.87.208 1.315.254.72-.322 4.57-.296 5.503-1.229-.246.246-1.543-2.061-1.458-2.544a15.362 15.362 0 011.848-2.909c.441-.627.645-2.069 1.561-2.493.576-.271 3.154-.17 3.298.611a5.756 5.756 0 01-1.441.848c-.051-.272 1.17 1.492 1.136 1.458-.034-.034 3.316-.848 3.392-.95.195-.339-3.019-.152-1.476-1.806.365-.381 3.978-1.696 4.24-1.179.06.128-2.544 2.544-2.45 3.002.339 1.62 5.3 2.502 5.139 4.24-.221 2.392-3.07 1.552-4.741 1.518-.712 0-1.28-.805-1.976-.848-2.281-.144-3.621.382-5.774.984-2.765.772-5.826 2.205-2.621 5.47 1.501 1.534 2.968.848 4.664.915.56 0 3.969-.737 4.427-.441.458.297-.992 4.334-1.17 4.766l.568.263c0 .11 0 .237-.043.348 0-.111 0-.238.043-.348l-.551-.254c-1.696 3.977-4.919 3.163-9.116 2.374-1.111-.203-2.01-.738-3.121-.89-1.798-.246-.848-1.696-3.239-.467-.789.416-.569 2.01-.653 2.044-1.417.56-7.522-1.518-9.099-3.138-1.578-1.619 1.093-3.002-.102-4.689-.73-1.026-5.699-.102-7.106.051a27.932 27.932 0 00-5.088 1.34c-1.739.491-3.147.347-4.766.771-1.374.365-.848-.212-2.027.433 1.272-.679-2.739 2.985-2.247 2.196-.611.975-1.086 2.052-1.696 3.036-.441.763-.322 1.764-1.052 2.858-.475.72-1.441.848-1.976 1.39a19.188 19.188 0 00-3.519 5.64c-.933 2.366-.381 2.747-.458 4.816-.076 1.925-.678 3.977-.619 5.877.068 2.086 1.009 2.925 2.027 4.571 2.29 3.722 5.003 7.165 9.396 7.632a19.875 19.875 0 006.877-.959c.288-.076 3.231-1.696 3.536-1.331.808.489 1.64.936 2.493 1.34.391.186.238 1.128.738 1.357.501.229 1.06-.535 1.476-.272 2.332 1.467 1.433.195 2.62 2.883.229.594-.458 2.494-.449 2.79.05 2.417.958 2.773 2.366 5.224 1.161 2.01 2.637 5.936 2.323 8.268-.339 2.468-2.145 4.605-2.256 7.31-.186 1.815 2.4 6.088 2.799 7.988.721 3.392 1.764 5.47 2.9 8.692 1.543 4.384.22 5.334 5.088 4.723 4.732-.576 7.42-2.06 9.896-6.784.386-1.232.67-2.494.848-3.773 1.696-2.443 2.697-1.111 3.163-4.3.331-2.264-1.085-2.255.144-4.426.984-1.747 3.689-2.01 4.741-3.579 2.17-3.265-.085-6.869-.704-10.176-.67-3.536 1.136-6.088 3.57-8.717 1-1.094 12.983-13.721 9.26-15.095-2.544-.958-5.419 2.714-8.353.848m21.742-113.928c.975-1.374-4.24-.62-3.07.415.56.492 2.621.212 3.07-.415zm-5.469.661c-.492.212-.984.39-1.484.56-.653.729 3.307.61 3.561-.238.161-.517-2.145-.458-2.077-.322zm-.161-1.891a8.476 8.476 0 001.984-.772c-.415-.568-3.332.543-3.392.348a1.697 1.697 0 001.408.424v0z" stroke="gray" stroke-miterlimit="10"/><path d="M352.878 144.414c.678 1.696-1.348 6.538-.288 7.895-.721-.924 1.611.094 1.628.102.017.009-.933-2.79-.848-2.909.848-1.891 1.696-1.009 1.984-1.382.509-.687-2.485-8.31-2.061-8.582-1.204.772-.78 3.994-.415 4.876zm-76.795-41.187a2.68 2.68 0 001.696-.424c.662-1.331-3.137.178-1.696.424zm10.176.136c-.067-.56-1.238.161-.848.39.391.229.908.169.848-.39zm-16.35-19.648l.967-.51c.314-1.076-2.883.255-2.764.408a2.543 2.543 0 001.797.102v0zM376.58 236.592c.068.424 2.756 2.671 3.138 2.391.381-.279-3.206-2.79-3.138-2.391zm-261.845-55.731c-.602-1.136.136 2.248.407 1.62a11.706 11.706 0 01-.407-1.62v0zm17.697 18.597c.797.178 1.06-.093.771-.797-.568-.526-1.034.534-.771.797zm183.193 15.688c0-.314-.848-.161-.568.28.279.441.568.034.568-.28zm6.614 6.767c.417.116.856.13 1.28.042.568-.474-3.078-1.102-2.976-1.051a.973.973 0 011.085-.848c-.95.636-9.252-2.154-8.7-.187.212.831 8.938 2.604 9.311 2.044zm9.837.042c.848 0 .941-.11.348-.356-.424-.067-4.393.357-4.316.526.517 1.128 3.247-.127 3.968-.17zm-6.443-.423c-.306.754-1.052-.263-1.442.254-.797 1.068 2.739 1.043 3.044.305.187-.424-1.45-.907-1.602-.559zm-9.397-10.592c2.417 2.468 1.238 4.596 5.224 4.808 3.315.17 3.502-2.467 5.656-5.164-.144.178-1.425-2.849-1.408-3.129.068-1.289 1.595-1.103 1.857-1.959.263-.857-3.078-1.467-3.256-1.425-1.077.238-.534 2.137-2.383 1.993-.059 0-3.248 3.655-3.256 3.68.237-.568-4.113-.525-2.434 1.196zm-12.653-.95c-.068.348.288 1.366.67.95.381-.416-.594-1.297-.67-.95zm1.587 3.019c-.068.17.288.848.508.662.221-.187-.313-1.222-.508-.662z" stroke="gray" stroke-miterlimit="10"/><path d="M313.132 216.901c-.093-1.475.738-1.085.73-2.035 0-.415-1.349-1.696-1.374-.907.259.255.486.539.678.848-.28.704-3.561-4.299-3.731-4.486-.763-.848-7.395-5.936-7.692-5.275-.212.492 5.089 8.124 5.792 9.091.704.967 5.903 7.445 5.597 2.764zm16.096 6.971c0-.95-1.891-.441-1.985-.594-.093-.152 1.985 1.442 1.985.594zm-2.146-9.074c-.153.28 2.018 3.452 1.119 3.825.848-.348.094-3.867.925-3.46 1.577.772-.17 2.951 1.942 1.306-1.12.848.059-5.8.915-3.918.111.255-4.774 1.535-3.553-.458 1.332-2.179 4.3.314 5.47-2.103-.704 1.459-3.613-.322-4.579.331-1.51 1.018-1.4 2.985-2.239 4.477zm10.081.806c.924.346 1.878.604 2.85.772 1.187 0-3.426-2.68-2.85-.772zm.163-5.512c0-2.357-1.959 2.502-.161 2.145 1.187-.237.161-2.187.161-2.145zm-3.604 13.153c.551-.73 2.399-.848 2.645-1.535.136-.407-2.84.907-3.12.941-.433.068-1.696.992-.848 1.441a1.462 1.462 0 001.323-.847zm1.238-7.573c.135.559 1.06.848 1.314.39.255-.458-1.467-1.043-1.314-.39zm-126.2-55.994c-.296.552.373 3.706 1.603 2.154 1.009-1.28-.831-3.612-1.603-2.154zm6.971 3.766c.229-.051-2.459-.238-2.222.474a8.074 8.074 0 002.357 1.51c.205-.65.448-1.287.73-1.908a.68.68 0 00-.865-.076v0z" stroke="gray" stroke-miterlimit="10"/><path d="M24.592 386.722h369.847" stroke="#263238" stroke-linecap="round" stroke-linejoin="round"/><path d="M61.904 356.923s-22.464-39.449-17.282-49.481c5.18-10.031 18.435 8.014 18.435 8.014s-11.524-36.778-5.181-52.83c6.343-16.053 17.274 0 17.808 11.371.534 11.372-2.298 30.757-2.298 30.757s4.605-40.119 15.544-28.085c10.939 12.033-13.823 52.16-13.823 52.16s16.706-9.328 16.112 2.68c-.593 12.007-20.157 22.735-20.157 22.735" fill="#fff"/><path d="M62.099 349.571s-20.793-19.394-10.668-28.086 15.46 9.328 15.46 9.328-11.195-55.501 6.936-57.511c18.13-2.01 4.79 48.149 4.79 48.149s15.46-21.403 14.417-4.011c-1.043 17.393-24.007 32.131-24.007 32.131m3.283-3.536l-14.052-15.222m11.126 16.401l3.799-44.495m-4.393 41.272l12.592-16.688" stroke="#263238" stroke-miterlimit="10"/><path d="M86.996 340.888H48.141l3.884 45.834h31.087l3.884-45.834z" fill="#263238"/><path d="M337.505 108.357l-43.96 2.731a9.697 9.697 0 00-9.099 9.811l.22 17.664-12.779 1.357 12.881 6.648a9.684 9.684 0 002.952 6.836 9.703 9.703 0 006.927 2.73l42.68-.78a9.7 9.7 0 009.514-9.328l.984-27.611a9.693 9.693 0 00-10.32-10.058z" fill="#fff" stroke="#263238" stroke-miterlimit="10"/><path d="M328.601 112.92h-28.789v18.13h28.789v-18.13z" fill="#8C8C8C" stroke="#263238" stroke-linecap="round" stroke-linejoin="round"/><path d="M328.601 112.92h-16.349v18.13h16.349v-18.13z" fill="#696969" stroke="#263238" stroke-linecap="round" stroke-linejoin="round"/><path d="M320.07 112.92h-11.728v18.13h11.728v-18.13z" fill="#fff" stroke="#263238" stroke-linecap="round" stroke-linejoin="round"/><path d="M299.6 145.72v-4.604c0-2.214 1.568-3.689 3.934-3.689s3.935 1.442 3.935 3.621c0 .102-.085.169-.212.186l-.755.051c-.135 0-.22 0-.22-.101v-.102a2.748 2.748 0 00-5.495 0v4.689a2.748 2.748 0 105.495 0 .177.177 0 01.22-.186h.755c.127 0 .212 0 .212.084v.085c0 2.197-1.569 3.655-3.935 3.655s-3.934-1.458-3.934-3.689zm10.117-7.301a.909.909 0 011.525-.722.912.912 0 01.225.995.915.915 0 01-.843.575.852.852 0 01-.837-.509.84.84 0 01-.07-.339zm.322 10.651v-8.039a.204.204 0 01.212-.221h.755a.216.216 0 01.087.012.205.205 0 01.133.209v8.039a.197.197 0 01-.059.162.199.199 0 01-.161.058h-.755a.203.203 0 01-.212-.22zm10.065-5.58v5.58a.204.204 0 01-.212.22h-.755a.203.203 0 01-.209-.133.197.197 0 01-.011-.087v-.602c0-.068-.051-.102-.102 0a3.536 3.536 0 01-2.612.992c-1.425 0-2.765-.687-2.765-2.451s1.272-2.713 3.452-2.713h1.959a.08.08 0 00.063-.022.079.079 0 00.022-.063v-.619a1.696 1.696 0 00-1.959-1.84c-1.06 0-1.747.432-1.934 1.136a.176.176 0 01-.026.08.188.188 0 01-.057.062.205.205 0 01-.078.032.204.204 0 01-.085-.004l-.848-.102c-.135 0-.22-.068-.203-.178.22-1.23 1.458-2.069 3.188-2.069 2.052-.034 3.172 1.127 3.172 2.781zm-1.187 3.087v-1.289a.078.078 0 00-.051-.081.08.08 0 00-.034-.004h-1.756c-1.458 0-2.45.619-2.45 1.696s.848 1.484 1.84 1.484c1.246.017 2.451-.636 2.451-1.806zm3.621.517a7.27 7.27 0 01-.237-2.061 7.639 7.639 0 01.22-2.043 3.48 3.48 0 013.274-2.305 3.473 3.473 0 013.273 2.305c.175.672.255 1.366.237 2.06a7.235 7.235 0 01-.237 2.061 3.447 3.447 0 01-3.265 2.332 3.452 3.452 0 01-3.265-2.332v-.017zm5.428-.348a7.837 7.837 0 00.135-1.696 7.153 7.153 0 00-.135-1.696 2.251 2.251 0 00-2.163-1.635 2.246 2.246 0 00-2.162 1.635 10.605 10.605 0 000 3.392 2.246 2.246 0 004.325 0z" fill="#263238"/><path d="M153.378 130.092l-17.384-4.698 3.926-25.77a8.185 8.185 0 00-2.107-6.818 8.184 8.184 0 00-6.652-2.579L94.247 93.28a8.175 8.175 0 00-7.488 8.811l2.714 33.801a8.183 8.183 0 007.835 7.522l28.408 1.119a8.17 8.17 0 008.413-6.937l.737-4.825 18.512-2.679z" fill="#fff" stroke="#263238" stroke-miterlimit="10"/><path d="M127.548 97.435h-28.79v18.13h28.79v-18.13z" fill="#8C8C8C" stroke="#263238" stroke-linecap="round" stroke-linejoin="round"/><path d="M127.548 101.828h-28.79v9.353h28.79v-9.353z" fill="#fff" stroke="#263238" stroke-linecap="round" stroke-linejoin="round"/><path d="M105.449 122.112h.755a.207.207 0 01.201.135.23.23 0 01.011.086v11.295a.221.221 0 01-.011.085.207.207 0 01-.201.135h-.755a.203.203 0 01-.209-.133.197.197 0 01-.011-.087v-5.088a.078.078 0 00-.051-.081c-.011-.004-.023-.005-.034-.004h-5.309a.079.079 0 00-.063.022.075.075 0 00-.022.063v5.088a.206.206 0 01-.059.162.2.2 0 01-.161.058h-.755a.195.195 0 01-.212-.22v-11.329a.195.195 0 01.212-.221h.755a.2.2 0 01.087.012.2.2 0 01.133.209v5.011a.075.075 0 00.022.063.07.07 0 00.03.018c.01.004.022.005.033.004h5.317a.078.078 0 00.081-.051c.004-.011.005-.022.004-.034v-5.011a.201.201 0 01.068-.136.206.206 0 01.144-.051zm3.799 9.506a7.374 7.374 0 01-.229-2.061 7.72 7.72 0 01.212-2.043 3.487 3.487 0 015.28-1.668 3.485 3.485 0 011.275 1.668c.176.672.256 1.366.238 2.06a7.307 7.307 0 01-.238 2.061 3.455 3.455 0 01-3.269 2.327 3.46 3.46 0 01-3.269-2.327v-.017zm5.427-.356a7.658 7.658 0 00.136-1.696 7.15 7.15 0 00-.136-1.696 2.243 2.243 0 00-2.158-1.644 2.238 2.238 0 00-2.158 1.644 7.421 7.421 0 00-.136 1.696 7.202 7.202 0 00.136 1.696 2.239 2.239 0 004.316 0zm3.757 2.332v-11.295a.219.219 0 01.012-.088.199.199 0 01.122-.121.196.196 0 01.087-.012h.755a.218.218 0 01.084.014.216.216 0 01.072.048c.02.021.035.046.045.073a.23.23 0 01.011.086v11.295a.221.221 0 01-.011.085.212.212 0 01-.045.073.216.216 0 01-.072.048.186.186 0 01-.084.014h-.755a.203.203 0 01-.209-.133.214.214 0 01-.012-.087zm9.99-5.546v5.58a.216.216 0 01-.012.087.201.201 0 01-.209.133h-.754a.202.202 0 01-.221-.22v-.602c0-.068-.051-.102-.102 0a3.519 3.519 0 01-2.611.983c-1.425 0-2.765-.686-2.765-2.442 0-1.755 1.272-2.713 3.451-2.713h1.942a.078.078 0 00.081-.051.08.08 0 00.004-.034v-.721a1.689 1.689 0 00-.523-1.408 1.684 1.684 0 00-.666-.388 1.715 1.715 0 00-.77-.053c-1.051 0-1.738.441-1.925 1.145a.176.176 0 01-.029.08.194.194 0 01-.14.09.203.203 0 01-.085-.009l-.848-.093c-.127 0-.212-.068-.195-.187.212-1.221 1.458-2.06 3.18-2.06 2.069.034 3.197 1.187 3.197 2.883zm-1.221 3.044v-1.289a.08.08 0 00-.022-.063.079.079 0 00-.029-.018.066.066 0 00-.034-.003h-1.755c-1.459 0-2.451.619-2.451 1.696s.848 1.492 1.848 1.492c1.264.017 2.443-.619 2.443-1.815z" fill="#263238"/><path d="M351.318 174.408h-22.616a17.24 17.24 0 00-17.24 17.24v6.369l-11.27-.433 11.304 7.378v4.774a17.246 17.246 0 0017.24 17.248h22.616a17.246 17.246 0 0017.24-17.248v-18.088a17.248 17.248 0 00-5.061-12.202 17.236 17.236 0 00-12.213-5.038z" fill="#fff" stroke="#263238" stroke-miterlimit="10"/><path d="M331.102 206.573h.755a.208.208 0 01.082.013.208.208 0 01.13.199v11.295a.221.221 0 01-.011.085.195.195 0 01-.045.073.194.194 0 01-.072.048.199.199 0 01-.084.015h-.755a.214.214 0 01-.162-.059.202.202 0 01-.058-.162v-5.088a.08.08 0 00-.022-.063.079.079 0 00-.063-.022h-5.309a.08.08 0 00-.063.022.079.079 0 00-.022.063v5.088a.202.202 0 01-.22.221h-.755a.216.216 0 01-.087-.012.21.21 0 01-.122-.121.202.202 0 01-.011-.088v-11.295a.203.203 0 01.22-.212h.755a.189.189 0 01.085.011.203.203 0 01.135.201v5.011a.079.079 0 00.051.082.079.079 0 00.034.003h5.309a.07.07 0 00.063-.022.079.079 0 00.018-.029c.004-.01.005-.022.004-.034v-5.011a.203.203 0 01.22-.212zm9.277 9.582a.21.21 0 01.046-.074.185.185 0 01.074-.046.2.2 0 01.169.018l.483.272c.119.068.17.169.102.28a3.264 3.264 0 01-1.281 1.383 3.265 3.265 0 01-1.831.448 3.09 3.09 0 01-1.925-.514 3.088 3.088 0 01-1.213-1.58 6.517 6.517 0 01-.322-2.315 7.766 7.766 0 01.152-1.942 3.172 3.172 0 013.24-2.4 3.131 3.131 0 013.349 2.883c.089.561.123 1.129.102 1.696a.2.2 0 01-.011.087.196.196 0 01-.209.125h-5.36a.08.08 0 00-.063.022.079.079 0 00-.022.063c-.013.412.021.825.102 1.23a2.16 2.16 0 002.273 1.636 2.301 2.301 0 002.145-1.272zm-4.384-3.858a4.744 4.744 0 00-.136 1.145.08.08 0 00.022.063.079.079 0 00.029.018.066.066 0 00.034.003h4.308a.078.078 0 00.031-.006.07.07 0 00.026-.019.06.06 0 00.016-.028.055.055 0 00.003-.031 8.614 8.614 0 00-.093-1.077 2.097 2.097 0 00-2.162-1.637 1.984 1.984 0 00-2.078 1.569zm7.887 5.783v-11.295a.203.203 0 01.22-.212h.755a.194.194 0 01.156.056.2.2 0 01.056.156v11.295a.198.198 0 01-.053.162.188.188 0 01-.073.047.194.194 0 01-.086.012h-.755a.216.216 0 01-.162-.059.202.202 0 01-.058-.162zm3.893 0v-11.295a.203.203 0 01.212-.212h.755a.189.189 0 01.085.011.203.203 0 01.135.201v11.295a.202.202 0 01-.22.221h-.755a.206.206 0 01-.201-.136.204.204 0 01-.011-.085zm3.848-1.976a7.268 7.268 0 01-.237-2.06 7.646 7.646 0 01.22-2.044 3.487 3.487 0 015.28-1.668 3.485 3.485 0 011.275 1.668c.173.673.25 1.366.229 2.061a7.226 7.226 0 01-.229 2.06 3.459 3.459 0 01-6.538 0v-.017zm5.427-.347a7.785 7.785 0 00.136-1.696 7.202 7.202 0 00-.136-1.696 2.233 2.233 0 00-2.158-1.644 2.238 2.238 0 00-2.158 1.644 7.478 7.478 0 00-.136 1.696c-.02.568.025 1.137.136 1.696a2.239 2.239 0 004.316 0z" fill="#263238"/><path d="M354.541 181.93h-28.789v18.13h28.789v-18.13z" fill="#fff" stroke="#263238" stroke-linecap="round" stroke-linejoin="round"/><path d="M354.694 181.93h-28.79v1.755h28.79v-1.755zm0 2.747h-28.79v1.756h28.79v-1.756zm0 2.74h-28.79v1.755h28.79v-1.755zm0 2.747h-28.79v1.755h28.79v-1.755zm0 2.748h-28.79v1.755h28.79v-1.755zm0 2.747h-28.79v1.755h28.79v-1.755zm0 2.748h-28.79v1.755h28.79v-1.755z" fill="#263238"/><path d="M339.71 181.93h-13.958v9.659h13.958v-9.659z" fill="#263238"/><path d="M326.294 182.744l.128.271.271.043-.195.212.042.297-.246-.136-.237.136.042-.297-.195-.212.272-.043.118-.271zm0 1.789l.128.272.271.042-.195.212.042.297-.246-.144-.237.144.042-.297-.195-.212.272-.042.118-.272zm0 1.781l.128.271.271.043-.195.212.042.297-.246-.145-.237.145.042-.297-.195-.212.272-.043.118-.271zm0 1.781l.128.271.271.051-.195.204.042.296-.246-.135-.237.135.042-.296-.195-.204.272-.051.118-.271zm0 1.789l.128.272.271.042-.195.212.042.297-.246-.144-.237.144.042-.297-.195-.212.272-.042.118-.272zm1.28-6.097l.119.271.271.043-.195.212.043.297-.238-.136-.246.136.043-.297-.195-.212.271-.043.127-.271zm0 1.789l.119.272.271.042-.195.212.043.297-.238-.144-.246.144.043-.297-.195-.212.271-.042.127-.272zm0 1.781l.119.272.271.042-.195.212.043.297-.238-.136-.246.136.043-.297-.195-.212.271-.042.127-.272zm0 1.781l.119.271.271.043-.195.212.043.297-.238-.136-.246.136.043-.297-.195-.212.271-.043.127-.271zm1.272-6.394l.127.271.271.043-.203.212.051.297-.246-.136-.246.136.051-.297-.204-.212.28-.043.119-.271zm0 1.789l.127.272.271.042-.203.212.051.297-.246-.144-.246.144.051-.297-.204-.212.28-.042.119-.272zm0 1.781l.127.271.271.043-.203.212.051.297-.246-.144-.246.144.051-.297-.204-.212.28-.043.119-.271zm0 1.781l.127.271.271.051-.203.204.051.296-.246-.135-.246.135.051-.296-.204-.204.28-.051.119-.271zm0 1.789l.127.272.271.042-.203.212.051.297-.246-.144-.246.144.051-.297-.204-.212.28-.042.119-.272zm1.281-6.097l.119.271.271.043-.195.212.043.297-.238-.136-.246.136.043-.297-.195-.212.271-.043.127-.271zm0 1.789l.119.272.271.042-.195.212.043.297-.238-.144-.246.144.043-.297-.195-.212.271-.042.127-.272zm0 1.781l.119.272.271.042-.195.212.043.297-.238-.136-.246.136.043-.297-.195-.212.271-.042.127-.272zm0 1.781l.119.271.271.043-.195.212.043.297-.238-.136-.246.136.043-.297-.195-.212.271-.043.127-.271zm1.273-6.394l.118.271.272.043-.195.212.05.297-.245-.136-.246.136.042-.297-.195-.212.271-.043.128-.271zm0 1.789l.118.272.272.042-.195.212.05.297-.245-.144-.246.144.042-.297-.195-.212.271-.042.128-.272zm0 1.781l.118.271.272.043-.195.212.05.297-.245-.145-.246.145.042-.297-.195-.212.271-.043.128-.271zm0 1.781l.118.271.272.051-.195.204.05.296-.245-.135-.246.135.042-.296-.195-.204.271-.051.128-.271zm0 1.789l.118.272.272.042-.195.212.05.297-.245-.144-.246.144.042-.297-.195-.212.271-.042.128-.272zm1.271-6.097l.128.271.271.043-.195.212.042.297-.246-.136-.246.136.051-.297-.195-.212.272-.043.118-.271zm0 1.789l.128.272.271.042-.195.212.042.297-.246-.144-.246.144.051-.297-.195-.212.272-.042.118-.272zm0 1.781l.128.272.271.042-.195.212.042.297-.246-.136-.246.136.051-.297-.195-.212.272-.042.118-.272zm0 1.781l.128.271.271.043-.195.212.042.297-.246-.136-.246.136.051-.297-.195-.212.272-.043.118-.271zm1.281-6.394l.119.271.271.043-.195.212.043.297-.238-.136-.246.136.043-.297-.195-.212.271-.043.127-.271zm0 1.789l.119.272.271.042-.195.212.043.297-.238-.144-.246.144.043-.297-.195-.212.271-.042.127-.272zm0 1.781l.119.271.271.043-.195.212.043.297-.238-.145-.246.145.043-.297-.195-.212.271-.043.127-.271zm0 1.781l.119.271.271.051-.195.204.043.296-.238-.135-.246.135.043-.296-.195-.204.271-.051.127-.271zm0 1.789l.119.272.271.042-.195.212.043.297-.238-.144-.246.144.043-.297-.195-.212.271-.042.127-.272zm1.272-6.097l.118.271.28.043-.203.212.051.297-.246-.136-.246.136.051-.297-.204-.212.28-.043.119-.271zm0 1.789l.118.272.28.042-.203.212.051.297-.246-.144-.246.144.051-.297-.204-.212.28-.042.119-.272zm0 1.781l.118.272.28.042-.203.212.051.297-.246-.136-.246.136.051-.297-.204-.212.28-.042.119-.272zm0 1.781l.118.271.28.043-.203.212.051.296-.246-.135-.246.135.051-.296-.204-.212.28-.043.119-.271zm1.272-6.394l.127.271.271.043-.195.212.042.297-.245-.136-.238.136.043-.297-.196-.212.272-.043.119-.271zm0 1.789l.127.272.271.042-.195.212.042.297-.245-.144-.238.144.043-.297-.196-.212.272-.042.119-.272zm0 1.781l.127.271.271.043-.195.212.042.297-.245-.145-.238.145.043-.297-.196-.212.272-.043.119-.271zm0 1.781l.127.271.271.051-.195.204.042.296-.245-.135-.238.135.043-.296-.196-.204.272-.051.119-.271zm0 1.789l.127.272.271.042-.195.212.042.297-.245-.144-.238.144.043-.297-.196-.212.272-.042.119-.272zm1.28-6.097l.119.271.272.043-.196.212.051.297-.246-.136-.245.136.042-.297-.195-.212.271-.043.127-.271zm0 1.789l.119.272.272.042-.196.212.051.297-.246-.144-.245.144.042-.297-.195-.212.271-.042.127-.272zm0 1.781l.119.272.272.042-.196.212.051.297-.246-.136-.245.136.042-.297-.195-.212.271-.042.127-.272zm0 1.781l.119.271.272.043-.196.212.051.297-.246-.136-.245.136.042-.297-.195-.212.271-.043.127-.271zm1.271-6.394l.128.271.271.043-.195.212.042.297-.246-.136-.246.136.051-.297-.195-.212.272-.043.118-.271zm0 1.789l.128.272.271.042-.195.212.042.297-.246-.144-.246.144.051-.297-.195-.212.272-.042.118-.272zm0 1.781l.128.271.271.043-.195.212.042.297-.246-.144-.246.144.051-.297-.195-.212.272-.043.118-.271zm0 1.781l.128.271.271.051-.195.204.042.296-.246-.135-.246.135.051-.296-.195-.204.272-.051.118-.271zm0 1.789l.128.272.271.042-.195.212.042.297-.246-.144-.246.144.051-.297-.195-.212.272-.042.118-.272z" fill="#fff"/><path d="M138.14 200.628h-14.865a29.082 29.082 0 00-34.411-19.432 29.076 29.076 0 00-11.277 51.134 29.079 29.079 0 0047.07-22.942v-.653l13.483-8.107z" fill="#fff" stroke="#263238" stroke-miterlimit="10"/><path d="M81.485 219.081a20.917 20.917 0 01-1.772 2.62 8.436 8.436 0 00-.72-.907 25.119 25.119 0 004.036-8.158l1.39.416c-.067.169-.212.203-.398.186a36.58 36.58 0 01-1.594 3.969l.483.135c0 .102-.11.187-.33.195v10.66h-1.095v-9.116zm11.474.407c.135-.619.305-1.56.45-2.468h-3.333v9.786c0 1.204-.433 1.425-2.782 1.425a4.508 4.508 0 00-.415-1.154h1.806c.22 0 .288-.067.288-.288v-9.769h-2.697a14.814 14.814 0 01-1.695 3.172 4.55 4.55 0 00-.849-.687 18.143 18.143 0 002.765-6.827l1.39.374c0 .118-.143.186-.364.169a26.138 26.138 0 01-.848 2.748h7.997a29.245 29.245 0 01-.755 3.68l-.958-.161zm-5.36.551c-.05.119-.17.187-.373.187a16.446 16.446 0 01-2.544 5.596 5.347 5.347 0 00-.89-.576 15.219 15.219 0 002.45-5.614l1.357.407zm6.08 5.648a23.228 23.228 0 00-2.297-5.784l.992-.347a22.383 22.383 0 012.383 5.724l-1.077.407zm8.014-9.549l.636.161-.102.238a21.906 21.906 0 01-1.611 7.208c.732.529 1.4 1.141 1.993 1.823l-.687.924a11.457 11.457 0 00-1.789-1.747 9.07 9.07 0 01-3.316 3.503 5.202 5.202 0 00-.704-.925 7.92 7.92 0 003.146-3.264 21.974 21.974 0 00-1.908-1.289l-.203.737-.959-.5c.424-1.475.942-3.604 1.425-5.766h-1.696v-1.06h1.908c.271-1.255.5-2.46.704-3.537l1.374.17c0 .119-.12.187-.331.204-.187.958-.424 2.043-.67 3.163h2.544l.246-.043zm-3.019 1.103c-.356 1.56-.738 3.129-1.094 4.503.704.39 1.425.848 2.129 1.331a19.707 19.707 0 001.39-5.834h-2.425zm12.788 2.883v1.085h-4.045v5.546c0 1.289-.5 1.493-3.468 1.459a5.733 5.733 0 00-.416-1.12h2.01c.568 0 .738 0 .738-.356v-5.563h-4.105v-1.085h4.105v-2.849h.551a16.938 16.938 0 002.484-2.731h-6.453v-1.06h7.301l.221-.068.89.56a.547.547 0 01-.271.161 21.064 21.064 0 01-3.587 3.875v2.078l4.045.068z" fill="#263238"/><path d="M110.029 189.274h-28.79v18.13h28.79v-18.13z" fill="#263238" stroke="#263238" stroke-linecap="round" stroke-linejoin="round"/><path d="M84.64 190.342l.704 1.416 1.552.221-1.128 1.102.271 1.543-1.4-.729-1.39.729.271-1.543-1.127-1.102 1.551-.221.696-1.416zm4.52-.551l.365.729.797.119-.577.56.136.797-.721-.373-.712.373.135-.797-.585-.56.806-.119.356-.729zm.975 3.68l.356.729.806.111-.585.568.136.797-.713-.373-.72.373.135-.797-.576-.568.797-.111.364-.729zm-2.392 2.409l.356.72.806.119-.577.568.136.797-.721-.381-.712.381.135-.797-.585-.568.806-.119.356-.72zm-3.316 1.102l.356.721.806.118-.576.569.135.797-.72-.373-.713.373.136-.797-.585-.569.805-.118.356-.721z" fill="#fff"/><path d="M257.351 131.847a35.173 35.173 0 00-21.714-32.498 35.178 35.178 0 00-13.461-2.677h-12.245a35.176 35.176 0 00-35.175 35.175" stroke="#263238" stroke-width="3" stroke-linecap="round" stroke-linejoin="round"/><path d="M257.352 157.898v-26.051m-82.596 0v26.051" stroke="#263238" stroke-width="6" stroke-linecap="round" stroke-linejoin="round"/><path d="M200.018 196.982s2.197 15.34 1.756 19.283c-.441 3.944-1.315 7.887-12.271 3.503-10.956-4.385-30.672 3.51-43.383 18.842-12.712 15.332-36.804 66.611-36.804 72.742s4.817 14.416 13.568 15.772c8.752 1.357 29.358-23.659 29.358-23.659s8.76 49.515 8.76 53.424c0 3.909-3.926 29.799-3.926 29.799h124.011l-4.825-31.987 8.768-70.553s36.371 49.514 44.258 51.728c7.886 2.213 20.157-1.756 23.226-10.956 3.07-9.201-1.755-18.843-7.895-25.856-6.139-7.013-44.689-68.798-51.728-74.488-7.038-5.69-26.729-6.14-33.741-4.384-7.013 1.755-18.843 4.384-21.913 2.628-3.07-1.755-3.061-18.401 0-25.855.026.017-26.703 7.03-37.219.017z" fill="#fff" stroke="#263238" stroke-linecap="round" stroke-linejoin="round"/><path d="M182.889 330.406a44.145 44.145 0 004.316 1.416m-26.933-29.527s1.951 17.028 17.995 25.949m31.91-75.82l8.531 12.466m75.828-.551l2.256-4.698m-5.911-1.315l-5.851 25.856 7.191-15.001m24.93 35.734s9.261-5.936 18.377-5.936" stroke="#263238" stroke-linecap="round" stroke-linejoin="round"/><path d="M298.31 322.698a126.44 126.44 0 0016.782-10.871 37.548 37.548 0 0126.712-7.565c8.743.942 13.475 11.813 13.703 22.693.229 10.88-5.673 17.486-16.307 19.139-10.634 1.654-23.167-.704-30.96-2.595a102.971 102.971 0 00-12.534-2.366s-10.159-15.603 2.604-18.435z" fill="#fff" stroke="#263238" stroke-linecap="round" stroke-linejoin="round"/><path d="M355.507 326.955c-.229-10.88-4.961-21.751-13.704-22.693a37.55 37.55 0 00-26.712 7.565l-1.187.907c10.176.348 30.749 4.503 27.526 32.919 9.227-2.213 14.298-8.615 14.077-18.698zm-155.49-129.973s2.196 15.34 1.755 19.283c-.33 2.96-.907 5.936-5.792 5.36 6.988 11.422 27.281 38.236 46.216 1.696-2.204.136-3.985 0-4.935-.526-3.061-1.755-3.061-18.402 0-25.855 0 .042-26.729 7.055-37.244.042z" fill="#fff" stroke="#263238" stroke-linecap="round" stroke-linejoin="round"/><path d="M200.017 196.982s.568 3.986 1.068 8.412a38.84 38.84 0 0016.451 4.478 31.772 31.772 0 0017.902-5.182 31.682 31.682 0 011.823-7.708s-26.729 7.013-37.244 0zm-24.083-53.034h-2.417a5.376 5.376 0 00-5.376 5.376v20.573a5.376 5.376 0 005.376 5.376h2.417a5.376 5.376 0 005.376-5.376v-20.573a5.376 5.376 0 00-5.376-5.376z" fill="#263238" stroke="#263238" stroke-linecap="round" stroke-linejoin="round"/><path d="M176.07 143.973h-2.697v31.275h2.697v-31.275z" fill="#fff" stroke="#263238" stroke-linecap="round" stroke-linejoin="round"/><path d="M258.802 143.948h-2.417a5.376 5.376 0 00-5.376 5.376v20.573a5.376 5.376 0 005.376 5.376h2.417a5.376 5.376 0 005.376-5.376v-20.573a5.376 5.376 0 00-5.376-5.376z" fill="#263238" stroke="#263238" stroke-linecap="round" stroke-linejoin="round"/><path d="M258.946 143.973h-2.697v31.275h2.697v-31.275zm-104.923 24.711a6.174 6.174 0 00-4.91 3.273c-1.968 3.274-8.184 15.383-7.531 18.987.653 3.604 27.823 29.129 27.823 30.766 0 1.636-21.598 31.096-36.006 44.189-14.407 13.093-25.855 27.814-27.823 39.601-1.967 11.788 4.91 21.599 12.118 23.566 7.208 1.968 16.036-2.289 26.178-15.06s37.973-68.408 42.23-87.344c0 0 .976-8.48-2.951-13.424-3.926-4.944-13.746-16.366-13.746-16.366s1.968-22.583.331-24.219c-1.637-1.637-3.273 1.967-3.273 1.967s-1.518-7.573-3.604-7.208c-2.281.407-2.943 3.273-2.943 3.273s-1.636-6.589-5.893-2.001z" fill="#fff" stroke="#263238" stroke-linecap="round" stroke-linejoin="round"/><path d="M166.463 174.578s-4.698 18.8-4.24 21.971m-2.307-25.906s-4.978 18.283-5.614 20.827a6.263 6.263 0 00.797 4.927m-1.077-27.713s-7.03 19.606-7.03 21.675c0 2.069 1.594 4.605 1.594 4.605" stroke="#263238" stroke-linecap="round" stroke-linejoin="round"/><path d="M147.764 250.609a172.238 172.238 0 01-14.365 15.264c-14.416 13.085-25.855 27.815-27.823 39.602-1.967 11.787 4.91 21.599 12.118 23.566 7.208 1.967 16.036-2.29 26.178-15.061 5.843-7.343 17.528-28.882 27.212-49.463-14.755-3.918-20.844-10.024-23.32-13.908zm33.259-122.892s-.568 45.563 1.145 54.111c1.713 8.548 17.087 23.066 34.768 23.634 17.681.568 31.613-15.663 33.318-24.21 1.704-8.548 0-42.714-.28-56.384-.28-13.67-19.937-25.915-39.856-22.786-19.92 3.129-30.231 14.806-29.095 25.635z" fill="#fff" stroke="#263238" stroke-linecap="round" stroke-linejoin="round"/><path d="M224.314 146.229s1.136 7.971 2.281 9.676c1.145 1.704 3.129 3.994-.848 5.698-3.977 1.705-7.123-.288-7.123-2.281" stroke="#263238" stroke-linecap="round" stroke-linejoin="round"/><path d="M228.588 174.417s-15.383 1.967-22.218-4.817c0 0 1.696 10.541 6.835 12.254 5.139 1.713 15.383-7.437 15.383-7.437z" fill="#fff" stroke="#263238" stroke-linecap="round" stroke-linejoin="round"/><path d="M208.651 146.509l1.425 4.554" stroke="#263238" stroke-linecap="round" stroke-linejoin="round"/><path d="M202.384 150.783s3.985 2.544 11.388.28" stroke="#263238" stroke-width="2" stroke-linecap="round" stroke-linejoin="round"/><path d="M236.558 146.509l1.424 4.554" stroke="#263238" stroke-linecap="round" stroke-linejoin="round"/><path d="M230.292 150.783s3.986 2.544 11.397.28m-41.296-12.525a14.942 14.942 0 0111.956-5.979m15.381-.576s8.26-2.273 13.959 4.24" stroke="#263238" stroke-width="2" stroke-linecap="round" stroke-linejoin="round"/><path d="M217.089 144.16a7.874 7.874 0 01-.102 8.124l-.161.254a13.257 13.257 0 01-11.253 6.25h-1.781a10.339 10.339 0 01-8.938-5.147v0a8.586 8.586 0 01-.492-7.632 8.564 8.564 0 017.361-5.233l8.107-.508a7.845 7.845 0 017.259 3.892v0zm9.327 0a7.865 7.865 0 00.102 8.124l.161.254a13.257 13.257 0 0011.253 6.25h1.781a10.339 10.339 0 008.938-5.147v0a8.568 8.568 0 00.492-7.632v0a8.564 8.564 0 00-7.361-5.233l-8.099-.508a7.85 7.85 0 00-4.184.917 7.853 7.853 0 00-3.083 2.975v0zm-8.37 1.492s2.544-1.992 7.403 0m-10.82-4.265h13.958M194.344 146h-13.322" stroke="#263238" stroke-linecap="round" stroke-linejoin="round"/><path d="M232.005 115.752s7.378 23.693 18.58 29.816c-.246-8.124-.534-15.756-.636-20.7-.288-13.67-19.937-25.915-39.856-22.786-19.92 3.129-30.189 14.806-29.053 25.635 0 0-.093 7.437-.084 16.876 9.616-4.147 34.937-15.697 51.049-28.841z" fill="#263238"/><path d="M179.047 138.368s37.354-15.662 57.545-35.548m-60.564 22.896s39.169-9.04 61.769-32.843m1.501 12.652s.602 15.366 16.875 29.527" stroke="#737373" stroke-linecap="round" stroke-linejoin="round"/><path d="M235.057 201.137s0 10.329-7.743 26.788c-7.742 16.46-8.073 32.92-2.908 45.182 5.164 12.262 19.046 17.113 33.92 11.626 14.874-5.487 16.782-30.019 15.17-44.868-1.611-14.848-16.112-32.275-19.368-40.992-3.256-8.718-5.486-13.229-5.486-13.229s-8.396 11.618-13.568 14.196l-.017 1.297z" fill="#263238"/><path d="M240.501 189.587a81.078 81.078 0 01-5.419 41.552c-9.04 21.692-2.111 44.894 8.438 49.71 10.549 4.817 20.784 3.019 25.906-3.612" stroke="#737373" stroke-linecap="round" stroke-linejoin="round"/><path d="M244.419 184.771s10.244 24.1 6.029 42.179c-4.214 18.08-2.408 41.018 10.244 45.495 12.652 4.478 19.886-4.477 19.886-4.477" stroke="#737373" stroke-linecap="round" stroke-linejoin="round"/><path d="M256.773 200.433s8.735 33.14 8.735 50.312c0 17.172 10.549 14.467 13.263 6.029" stroke="#737373" stroke-linecap="round" stroke-linejoin="round"/><path d="M235.057 201.137s0 10.329-7.743 26.788c-7.742 16.46-8.073 32.92-2.908 45.182 5.164 12.262 19.046 17.113 33.92 11.626 14.874-5.487 16.782-30.019 15.17-44.868-1.611-14.848-16.112-32.275-19.368-40.992-3.256-8.718-5.486-13.229-5.486-13.229s-8.396 11.618-13.568 14.196l-.017 1.297z" stroke="#263238" stroke-linecap="round" stroke-linejoin="round"/><path d="M274.888 292.498l-55.058-2.221a4.401 4.401 0 00-4.575 4.221l-3.066 76.02a4.4 4.4 0 004.22 4.575l55.058 2.221a4.4 4.4 0 004.575-4.22l3.067-76.021a4.402 4.402 0 00-4.221-4.575z" fill="#263238" stroke="#263238" stroke-linecap="round" stroke-linejoin="round"/><path d="M302.94 323.249s-28.187-8.768-32.995-10.244c-4.808-1.475-32.504 19.207-33.607 22.159-1.102 2.951 2.952 2.959 2.952 2.959s-1.696 2.951.848 4.427c.802.54 1.654 1.003 2.544 1.382 0 0-1.476 3.324 1.475 4.435 2.951 1.111 7.021-1.849 7.021-1.849l6.649-4.799s-7.988 9.777-6.284 11.821c2.349 2.798 3.85-.204 3.85-.204l9.184-10.88 9.226-4.435s7.386 4.435 19.207 4.8c11.821.365 14.416-4.8 14.416-4.8" fill="#fff"/><path d="M302.94 323.249s-28.187-8.768-32.995-10.244c-4.808-1.475-32.504 19.207-33.607 22.159-1.102 2.951 2.952 2.959 2.952 2.959s-1.696 2.951.848 4.427c.802.54 1.654 1.003 2.544 1.382 0 0-1.476 3.324 1.475 4.435 2.951 1.111 7.021-1.849 7.021-1.849l6.649-4.799s-7.988 9.777-6.284 11.821c2.349 2.798 3.85-.204 3.85-.204l9.184-10.88 9.226-4.435s7.386 4.435 19.207 4.8c11.821.365 14.416-4.8 14.416-4.8" stroke="#263238" stroke-linecap="round" stroke-linejoin="round"/><path d="M242.74 343.932s10.354-7.106 12.932-9.676c2.578-2.569 10.931-7.937 13.509-7.937m-11.295 15.425s5.088-5.749 7.004-6.606c1.917-.856 4.715-2.145 4.715-2.145m-30.316 5.13s14.416-10.176 19.351-13.169a69.813 69.813 0 019.218-4.724" stroke="#263238" stroke-linecap="round" stroke-linejoin="round"/></svg>